<?xml version="1.0" encoding="UTF-8"?><svg id="_層_2" xmlns="http://www.w3.org/2000/svg" viewBox="0 0 417.62 33.85"><defs><style>.cls-1{fill:#fff;}</style></defs><g id="_層_1-2"><path class="cls-1" d="M0,.73H5.56l12.59,24.82h.27L30.77,.73h5.47V33.09h-5.47V6.56h-.17l-13.27,26.53h-1.12L2.78,6.78h-.37v26.31H0V.73ZM45.03,.73h5.44V33.09h-5.44V.73Zm29.63,16.3c0,2.26,.34,4.29,1.03,6.09,.68,1.8,1.62,3.32,2.82,4.56,1.2,1.24,2.61,2.2,4.23,2.86,1.63,.66,3.39,.99,5.3,.99,1.14,0,2.24-.22,3.3-.66,1.06-.44,2.04-1.01,2.94-1.72,.9-.71,1.71-1.5,2.43-2.39,.72-.89,1.3-1.79,1.76-2.7l2.29,1.46c-.67,1.09-1.46,2.14-2.37,3.14-.91,1-1.97,1.89-3.16,2.66-1.2,.77-2.55,1.39-4.05,1.84-1.5,.46-3.18,.68-5.04,.68-2.68,0-5.12-.45-7.31-1.34-2.19-.89-4.06-2.11-5.63-3.64-1.56-1.53-2.77-3.31-3.62-5.36-.85-2.04-1.28-4.2-1.28-6.48,0-1.51,.2-2.99,.59-4.43,.39-1.44,.96-2.79,1.7-4.05,.74-1.26,1.64-2.42,2.71-3.47,1.06-1.05,2.27-1.95,3.61-2.71,1.34-.76,2.81-1.34,4.41-1.76,1.59-.42,3.29-.62,5.1-.62s3.31,.23,4.77,.7c1.46,.46,2.78,1.08,3.98,1.84,1.19,.76,2.26,1.65,3.2,2.65,.94,1,1.74,2.05,2.4,3.14l-2.37,1.56c-1.35-2.62-2.86-4.54-4.54-5.75-1.68-1.21-3.6-1.82-5.78-1.82-1.87,0-3.62,.34-5.25,1.03-1.63,.68-3.05,1.66-4.26,2.93-1.21,1.27-2.16,2.81-2.86,4.62-.69,1.81-1.04,3.86-1.04,6.14ZM121.53,0l15.23,33.09h-5.54l-4.93-10.79h-13.89l-5.1,10.79h-2.73L120.16,0h1.37Zm-8.18,20.21h11.93l-5.88-12.81-6.05,12.81Zm38.49,11.59c.8,0,1.59-.11,2.37-.33,.78-.22,1.48-.54,2.1-.98s1.12-.96,1.49-1.59c.38-.63,.56-1.35,.56-2.18,0-.99-.26-1.87-.77-2.65-.51-.77-1.18-1.48-2.01-2.12-.83-.64-1.78-1.25-2.84-1.82-1.07-.57-2.15-1.14-3.26-1.71-1.11-.57-2.19-1.17-3.26-1.79-1.07-.63-2.01-1.33-2.84-2.1-.83-.77-1.5-1.64-2.01-2.59-.51-.95-.77-2.05-.77-3.28s.23-2.38,.7-3.44c.46-1.06,1.14-1.97,2.04-2.75,.89-.77,2-1.38,3.31-1.82,1.31-.44,2.81-.66,4.5-.66,1.53,0,2.9,.16,4.1,.49,1.2,.33,2.26,.81,3.17,1.44,.91,.63,1.68,1.42,2.32,2.34,.63,.93,1.15,2,1.54,3.22l-2.78,1.27c-.33-.99-.74-1.9-1.25-2.72-.5-.82-1.11-1.53-1.8-2.11-.7-.59-1.51-1.04-2.43-1.35-.92-.32-1.96-.48-3.11-.48-1.03,0-1.92,.14-2.68,.43-.76,.28-1.4,.66-1.92,1.12-.51,.46-.9,.98-1.15,1.56-.25,.58-.38,1.17-.38,1.77,0,.85,.26,1.62,.78,2.33,.52,.71,1.21,1.37,2.07,2,.86,.63,1.84,1.23,2.94,1.82,1.1,.59,2.22,1.18,3.36,1.78,1.14,.6,2.26,1.23,3.36,1.88,1.1,.65,2.08,1.36,2.94,2.14,.86,.77,1.55,1.62,2.07,2.54,.52,.92,.78,1.95,.78,3.09,0,1.29-.24,2.49-.73,3.62-.49,1.13-1.22,2.12-2.2,2.95-.98,.84-2.19,1.5-3.64,1.99-1.45,.49-3.13,.73-5.05,.73-1.56,0-2.95-.17-4.17-.51-1.22-.34-2.3-.84-3.23-1.49-.94-.65-1.74-1.44-2.4-2.38-.67-.94-1.21-2.01-1.64-3.21l2.91-1.2c.34,1.06,.8,2,1.38,2.83,.58,.83,1.25,1.53,2.01,2.11,.76,.58,1.62,1.02,2.55,1.33,.94,.31,1.93,.46,2.99,.46ZM183.3,0l15.23,33.09h-5.54l-4.93-10.79h-13.89l-5.1,10.79h-2.73L181.93,0h1.37Zm-8.18,20.21h11.93l-5.88-12.81-6.05,12.81Zm48.74,11.59c.8,0,1.59-.11,2.37-.33,.78-.22,1.48-.54,2.1-.98,.62-.43,1.12-.96,1.49-1.59,.37-.63,.56-1.35,.56-2.18,0-.99-.26-1.87-.77-2.65-.51-.77-1.18-1.48-2.01-2.12-.83-.64-1.78-1.25-2.84-1.82-1.07-.57-2.15-1.14-3.26-1.71-1.11-.57-2.19-1.17-3.26-1.79-1.07-.63-2.01-1.33-2.84-2.1-.83-.77-1.5-1.64-2.01-2.59-.51-.95-.77-2.05-.77-3.28s.23-2.38,.7-3.44c.46-1.06,1.14-1.97,2.04-2.75,.89-.77,2-1.38,3.31-1.82,1.31-.44,2.81-.66,4.5-.66,1.53,0,2.9,.16,4.1,.49,1.2,.33,2.26,.81,3.17,1.44,.91,.63,1.68,1.42,2.32,2.34,.63,.93,1.15,2,1.54,3.22l-2.78,1.27c-.33-.99-.74-1.9-1.25-2.72-.5-.82-1.11-1.53-1.81-2.11-.7-.59-1.51-1.04-2.43-1.35-.92-.32-1.96-.48-3.11-.48-1.03,0-1.92,.14-2.68,.43-.76,.28-1.4,.66-1.92,1.12-.51,.46-.9,.98-1.15,1.56-.25,.58-.38,1.17-.38,1.77,0,.85,.26,1.62,.78,2.33,.52,.71,1.21,1.37,2.07,2,.86,.63,1.84,1.23,2.94,1.82,1.1,.59,2.22,1.18,3.36,1.78,1.14,.6,2.26,1.23,3.36,1.88,1.1,.65,2.08,1.36,2.94,2.14,.86,.77,1.55,1.62,2.07,2.54,.52,.92,.78,1.95,.78,3.09,0,1.29-.24,2.49-.73,3.62-.49,1.13-1.22,2.12-2.2,2.95-.98,.84-2.19,1.5-3.64,1.99-1.45,.49-3.13,.73-5.05,.73-1.56,0-2.95-.17-4.17-.51-1.22-.34-2.3-.84-3.23-1.49-.94-.65-1.74-1.44-2.4-2.38-.67-.94-1.21-2.01-1.64-3.21l2.91-1.2c.34,1.06,.8,2,1.38,2.83,.58,.83,1.25,1.53,2.01,2.11,.76,.58,1.62,1.02,2.55,1.33,.94,.31,1.93,.46,2.99,.46ZM242.16,.73h5.44V21.74c0,1.38,.24,2.68,.71,3.89,.47,1.21,1.15,2.27,2.03,3.18,.88,.91,1.94,1.63,3.18,2.16,1.24,.53,2.63,.79,4.16,.79s2.94-.26,4.17-.79c1.24-.53,2.29-1.25,3.16-2.16,.87-.91,1.54-1.97,2-3.18,.46-1.21,.69-2.51,.69-3.89V.73h2.39V21.74c0,1.66-.27,3.22-.81,4.69-.54,1.46-1.38,2.75-2.53,3.84-1.15,1.1-2.62,1.97-4.41,2.61-1.79,.64-3.94,.96-6.44,.96-2.23,0-4.2-.32-5.92-.96-1.72-.64-3.16-1.52-4.32-2.62-1.16-1.11-2.04-2.4-2.64-3.89s-.89-3.08-.89-4.77V.73Zm51.59,16.3c0,2.26,.34,4.29,1.03,6.09,.68,1.8,1.62,3.32,2.82,4.56,1.2,1.24,2.61,2.2,4.24,2.86,1.63,.66,3.39,.99,5.3,.99,1.14,0,2.24-.22,3.3-.66,1.06-.44,2.04-1.01,2.94-1.72,.9-.71,1.71-1.5,2.43-2.39,.72-.89,1.3-1.79,1.76-2.7l2.29,1.46c-.67,1.09-1.46,2.14-2.37,3.14-.91,1-1.97,1.89-3.16,2.66-1.2,.77-2.55,1.39-4.05,1.84-1.5,.46-3.18,.68-5.04,.68-2.68,0-5.12-.45-7.31-1.34-2.19-.89-4.06-2.11-5.63-3.64-1.56-1.53-2.77-3.31-3.62-5.36-.85-2.04-1.28-4.2-1.28-6.48,0-1.51,.2-2.99,.59-4.43,.39-1.44,.96-2.79,1.7-4.05,.74-1.26,1.64-2.42,2.71-3.47,1.06-1.05,2.27-1.95,3.61-2.71,1.34-.76,2.81-1.34,4.41-1.76,1.59-.42,3.29-.62,5.1-.62s3.31,.23,4.77,.7c1.46,.46,2.78,1.08,3.98,1.84,1.19,.76,2.26,1.65,3.2,2.65,.93,1,1.74,2.05,2.4,3.14l-2.37,1.56c-1.35-2.62-2.86-4.54-4.54-5.75-1.68-1.21-3.6-1.82-5.78-1.82-1.87,0-3.62,.34-5.25,1.03-1.63,.68-3.05,1.66-4.26,2.93-1.21,1.27-2.16,2.81-2.86,4.62s-1.04,3.86-1.04,6.14ZM340.63,0l15.23,33.09h-5.54l-4.93-10.79h-13.89l-5.1,10.79h-2.73L339.26,0h1.37Zm-8.18,20.21h11.93l-5.88-12.81-6.05,12.81Zm38.48,11.59c.8,0,1.59-.11,2.37-.33,.78-.22,1.48-.54,2.1-.98,.62-.43,1.12-.96,1.49-1.59,.38-.63,.56-1.35,.56-2.18,0-.99-.26-1.87-.77-2.65-.51-.77-1.18-1.48-2.01-2.12-.83-.64-1.78-1.25-2.84-1.82-1.07-.57-2.15-1.14-3.26-1.71-1.11-.57-2.19-1.17-3.26-1.79-1.07-.63-2.01-1.33-2.84-2.1-.83-.77-1.5-1.64-2.01-2.59-.51-.95-.77-2.05-.77-3.28s.23-2.38,.7-3.44c.46-1.06,1.14-1.97,2.04-2.75,.89-.77,2-1.38,3.31-1.82,1.31-.44,2.81-.66,4.5-.66,1.53,0,2.9,.16,4.1,.49,1.2,.33,2.26,.81,3.17,1.44,.91,.63,1.68,1.42,2.32,2.34,.63,.93,1.15,2,1.54,3.22l-2.78,1.27c-.33-.99-.74-1.9-1.25-2.72-.5-.82-1.11-1.53-1.81-2.11-.7-.59-1.51-1.04-2.43-1.35-.92-.32-1.96-.48-3.11-.48-1.03,0-1.92,.14-2.68,.43-.76,.28-1.4,.66-1.92,1.12-.51,.46-.9,.98-1.15,1.56-.25,.58-.38,1.17-.38,1.77,0,.85,.26,1.62,.78,2.33,.52,.71,1.21,1.37,2.07,2,.86,.63,1.84,1.23,2.94,1.82,1.1,.59,2.22,1.18,3.36,1.78,1.14,.6,2.26,1.23,3.36,1.88,1.1,.65,2.08,1.36,2.94,2.14,.86,.77,1.55,1.62,2.07,2.54,.52,.92,.78,1.95,.78,3.09,0,1.29-.24,2.49-.73,3.62-.49,1.13-1.22,2.12-2.2,2.95-.98,.84-2.19,1.5-3.64,1.99-1.45,.49-3.13,.73-5.05,.73-1.56,0-2.95-.17-4.17-.51-1.22-.34-2.3-.84-3.23-1.49-.94-.65-1.74-1.44-2.4-2.38-.67-.94-1.21-2.01-1.64-3.21l2.91-1.2c.34,1.06,.8,2,1.38,2.83,.58,.83,1.25,1.53,2.01,2.11,.76,.58,1.62,1.02,2.55,1.33,.94,.31,1.93,.46,2.99,.46ZM402.39,0l15.23,33.09h-5.54l-4.93-10.79h-13.89l-5.1,10.79h-2.73L401.03,0h1.37Zm-8.18,20.21h11.93l-5.88-12.81-6.05,12.81Z"/></g></svg>