<?xml version="1.0" encoding="UTF-8"?><svg id="_層_2" xmlns="http://www.w3.org/2000/svg" viewBox="0 0 335.19 218.67"><defs><style>.cls-1{fill:#f6e1d5;}</style></defs><g id="_層_1-2"><g><polygon class="cls-1" points="96.07 89.95 126.74 89.95 126.74 28.91 225.51 28.91 225.51 89.95 241.63 89.95 241.63 0 96.07 25.16 96.07 89.95"/><path class="cls-1" d="M164.9,42.94h12.37c.28,0,.5,.22,.5,.5v15.89h9.39v-21.76c0-.28-.22-.5-.5-.5h-21.76v5.87Z"/><path class="cls-1" d="M215.74,37.07h-21.76v5.87h8.85c.28,0,.5,.22,.5,.5v15.89h12.91v-21.76c0-.28-.22-.5-.5-.5"/><path class="cls-1" d="M158.26,42.94v-5.37c0-.28-.22-.5-.5-.5h-21.76v5.87h15.89c.28,0,.5,.22,.5,.5v15.89h5.87v-16.4Z"/><path class="cls-1" d="M186.75,65.35h-21.76v5.87h12.28c.28,0,.5,.22,.5,.5v18.24h9.48v-24.11c0-.28-.22-.5-.5-.5"/><path class="cls-1" d="M215.74,65.35h-21.76v5.87h8.85c.28,0,.5,.22,.5,.5v18.24h12.91v-24.11c0-.28-.22-.5-.5-.5"/><path class="cls-1" d="M158.26,71.22v-5.37c0-.28-.22-.5-.5-.5h-21.76v5.87h15.89c.28,0,.5,.22,.5,.5v18.24h5.87v-18.74Z"/><g><path class="cls-1" d="M289.89,166.97s-2.53,.39-5.29,.39h-16.75c-2.55,0-5.49-.39-5.49-.39,0,0,.39,1.95,.39,4.63v12.58c0,3.77-.39,4.78-.39,4.78,0,0,2.96-.39,5.49-.39h16.75c2.83,0,5.29,.39,5.29,.39,0,0-.39-2.21-.39-4.78v-12.58c0-2.67,.39-4.63,.39-4.63m-8.02,17.42h-11.33v-12.85h11.33v12.85Zm10.81-42.66h-33.12v-3.86h14.67c-1.84-2.7-4.82-6.17-7.16-8.54l8.74-3.39c1.34,3.23,2.31,7.26,3.01,11.93h13.86v3.86Zm-2.99,9.31h-27.14v-3.86h27.14v3.86Zm-27.14,5.52h27.14v3.85h-27.14v-3.85Zm45.38-13.29c0,5.73-3.99,10-13.78,9.94l-1.33-6.41c7.07-.3,8.13-.62,8.13-4.26v-13.36h23.85v13.36c0,3.63,1.53,3.96,8.6,4.26l-1.46,6.5c-8.99,0-14.11-4.29-14.11-10.02v-10.63h-9.91v10.63m27.24,38.92c-1.55,1.93-2.84,4.48-3.88,7.65-7.31-1.6-13.07-4.35-17.61-7.53-5.37,3.57-11.89,6.16-19.13,7.53l-2.71-7.5c6.26-1.11,11.58-2.76,15.99-4.95-5.63-5.67-8.33-11.56-9.55-14.43h6.28c2.3,3.79,4.77,7.63,8.9,10.95,4.6-3.53,7.62-8.01,9.06-13.49h-26.34v-3.86h32.74c-.18,8.2-3.67,15.42-9.47,21.1,3.98,1.94,9.05,3.52,15.73,4.52"/><path class="cls-1" d="M140.02,176.85c4.37-1.72,9.39-3.98,13.65-6.8l-6.39-6.24c-3.67,4.75-7.43,8.62-11.01,11.22-6.25-3.46-9.93-7.88-12.57-12.49h37.2v-4.25h-58.48v-5.2h48.82v-4.25h-48.82v-5.06h48.82v-4.25h-48.82v-5.13h51.73v-4.25h-59.65v28.14h-8.97v4.25h8.97v18.23c-2.45,.19-4.71,.32-6.66,.38l1.99,8.08c11.28-1.37,25.1-5.49,32.93-9.06l-1.39-2.92c-5.79,1.13-12.58,2.09-18.95,2.78v-17.5h15.59c7.19,17.76,24.2,25.35,36.65,26.97,1.44-2.15,3.99-5.3,6.43-7.97-8.96-.78-15.78-2.44-21.08-4.7"/><path class="cls-1" d="M50.9,174.73c6.84,3.51,13.4,5.35,22.35,6.43l-5.85,8.68c-9.77-2.44-16.35-9.59-17.79-12.77l1.29-2.35ZM1.74,181.15l5.85,8.68c9.77-2.44,16.35-9.59,17.79-12.77l-1.29-2.35c-6.84,3.51-13.4,5.36-22.35,6.43m73.61-12.15v4.65H0v-4.65H6.6v-34.64H24.65c0-6.59-.39-6.74-.39-6.74h8.53s-.39,.15-.39,6.74h10.26c0-6.59-.39-6.74-.39-6.74h8.53s-.39,.15-.39,6.74h18.22v34.64h6.71Zm-24.94-17.22h10.64v-12.77h-10.64v12.77Zm10.64,4.44h-10.64v12.78h10.64v-12.78Zm-28.65-4.44h10.26v-12.77h-10.26v12.77Zm10.26,4.44h-10.26v12.78h10.26v-12.78Zm-28.48-4.44h10.47v-12.77H14.18v12.77Zm0,17.22h10.47v-12.78H14.18v12.78Z"/><path class="cls-1" d="M214.95,180.27h8.97s-.58-3.41-.74-8.26h21.57v-3.86h-21.61v-5.2h17.65v-3.86h-17.65v-5.41h17.65v-9.5h6.63v-3.72h-6.63v-9.08h-17.51c.22-3.26,.64-4.93,.64-4.93h-8.97s.38,1.98,.61,4.93h-15v3.86h15.17c0,.13,0,.26,0,.39v4.83h-18.79v3.72h18.79v5.64h-15.17v3.86h15.17v5.41h-15.77v3.86h15.77v5.2h-18.88v3.86h18.84c-.16,4.84-.74,8.26-.74,8.26m8.19-44.64c0-.14,0-.26,0-.39h10.84v5.22h-10.85v-4.83Zm0,8.56h10.85v5.64h-10.85v-5.64Zm-1.48,38.05c9.22-.07,17.72-.25,26.17-1.07-1.29,2.21-2.18,4.93-2.76,8.08-7.24,.41-14.02,.68-21.77,.48-11.6-.32-26.33-.41-36.66-9.21-2.78,3.34-6.19,6.35-10.33,9.38l-5.05-7.17c4.17-2.38,7.56-4.99,10.3-7.84-2.54-3.64-4.57-8.19-5.89-13.92h4.75c1,4.04,2.52,7.3,4.42,9.96,3.48-4.97,5.31-10.67,5.89-17.27h-8.3c-1.76,.89-3.59,1.62-5.45,2.17l-3-5.77c9.7-3.38,15.27-8.43,16.74-15.37h-16.74v-3.86h22.83v.02c-.01,8.27-3.54,14.58-8.61,18.95h8.61c-.73,11.51-2.87,19.62-6.94,26.24,8.95,6.61,21.77,6.21,31.8,6.21"/></g><g><path class="cls-1" d="M231.15,210.8h-2.14c-.59,1.57-1.48,2.94-2.65,4.07-1.78-1.07-3.52-2.45-4.74-3.88,2.06-1.11,4.21-2.27,4.21-4.07,0-1.59-1.35-2.72-3.67-2.72-2.57,0-4.31,1.42-4.31,3.26,0,.99,.46,2.1,1.22,3.21-1.91,.98-3.67,2.14-3.67,3.97,0,2.21,2.29,3.81,5.68,3.81,2.22,0,3.98-.62,5.4-1.57,1.5,.79,2.39,1.2,4.15,1.8l.83-1.84c-1.15-.27-2.37-.6-3.59-1.12,1.48-1.43,2.55-3.09,3.26-4.91m-9-5.36c1.27,0,1.78,.71,1.78,1.52,0,1.22-1.48,2.06-3.19,2.91-.56-.84-.89-1.69-.89-2.44,0-1.14,.89-1.99,2.29-1.99m-.79,11.64c-2.09,0-3.7-1.01-3.7-2.53,0-1.07,1.02-1.89,2.35-2.68,1.33,1.48,3.09,2.93,4.92,4.11-1.07,.67-2.29,1.11-3.57,1.11"/><path class="cls-1" d="M137.86,216.63c-.27-.21-.4-.55-.4-1v-8.52c0-1.58,.2-2.76,.2-2.76h-2.86s.2,1.18,.2,2.76v8.6c0,.75,.26,1.37,.78,1.86,.52,.49,1.44,.74,2.67,.74h6.93v-1.36h-6.3c-.55,0-.96-.11-1.23-.32"/><path class="cls-1" d="M130.78,204.36h-2.86s.2,1.18,.2,2.76v8.44c0,1.57-.2,2.76-.2,2.76h2.86s-.2-1.18-.2-2.76v-8.44c0-1.57,.2-2.76,.2-2.76"/><path class="cls-1" d="M158.96,205.87c-.51-.54-1.18-.93-2.02-1.16-.83-.24-1.85-.36-3.05-.36h-5.98v13.95h5.98c1.2,0,2.21-.12,3.05-.35,.83-.24,1.51-.62,2.02-1.16,.51-.54,.88-1.26,1.12-2.15,.23-.89,.35-2,.35-3.31s-.12-2.42-.35-3.31c-.24-.89-.61-1.61-1.12-2.15m-1.45,8.86c-.27,.79-.72,1.36-1.35,1.69-.63,.34-1.48,.5-2.55,.5-.64,0-2.08,0-3.24,0v-11.17c1.16,0,2.6,0,3.24,0,1.07,0,1.92,.17,2.55,.51,.63,.34,1.08,.91,1.35,1.71,.27,.79,.4,1.96,.4,3.34s-.13,2.61-.4,3.4"/><path class="cls-1" d="M165.14,205c-.57,.43-.87,1.01-.89,1.76v9.16c.02,.73,.31,1.32,.89,1.75,.57,.43,1.36,.65,2.35,.65h7.54v-1.38h-6.83c-.5,0-.87-.11-1.1-.32-.23-.21-.35-.55-.35-1.02v-3.85h7.24v-1.38h-7.24v-3.3c0-.47,.12-.8,.35-1.01,.23-.21,.6-.31,1.1-.31h6.83v-1.39h-7.54c-.99,0-1.77,.21-2.35,.64"/><path class="cls-1" d="M104.43,211c1.37,0,2.71-1.19,2.71-3.11,0-2.65-1.85-3.54-3.81-3.54h-7.27v13.96h7.33c2.34,0,4.39-.84,4.39-3.8,0-2.64-1.95-3.51-3.35-3.51m-.04-4.33c.23,.33,.34,.8,.34,1.42s-.1,1.07-.32,1.41c-.21,.33-.56,.56-1.03,.69-.48,.12-.99,.19-1.8,.21h-3.07v-4.56h3.71c1.32,0,1.94,.52,2.16,.84m-2.02,10.16c-.77,0-2.49,0-3.85,0v-5.13h3.09c.92,.01,1.65,.1,2.19,.25,.54,.16,.92,.43,1.14,.81,.23,.38,.34,.92,.34,1.63,0,1.9-1.19,2.44-2.91,2.44"/><path class="cls-1" d="M201.56,210.93c-1.65-.39-2.62-.65-3.35-.84-.73-.19-1.28-.36-1.62-.66-.33-.3-.5-.74-.5-1.49,0-2.13,1.24-2.29,2.12-2.29h5.8v-1.3h-6.32c-1.48,0-4.1,.41-4.1,3.47,0,1.04,.25,1.87,.74,2.48,.49,.62,1.35,1.05,2.56,1.3,0,0,2.19,.51,3.25,.76,1.26,.3,1.99,.75,1.99,2.03,0,1.07-.02,2.49-2.01,2.49h-6.15v1.42h7.15c2.38,0,3.52-1.35,3.52-3.83,0-2.17-1.07-3.08-3.08-3.56"/><path class="cls-1" d="M121.12,204.36h-.2s.2,1.05,.2,2.38v6.28c0,.99-.12,1.77-.38,2.35-.26,.58-.68,.99-1.25,1.24-.57,.25-1.2,.23-2.17,.23s-1.61,.02-2.19-.23c-.58-.25-1-.66-1.25-1.24-.25-.58-.38-1.36-.37-2.35v-6.28c0-1.58,.21-2.38,.21-2.38h-2.7s.21,1.05,.21,2.38v6.14c0,1.33,.2,2.4,.61,3.22,.4,.81,1.06,1.4,1.97,1.77,.91,.37,2.11,.55,3.62,.55s2.65-.18,3.52-.55c.87-.37,1.51-.96,1.9-1.77,.39-.81,.58-1.88,.58-3.22v-6.14c0-1.58,.2-2.38,.2-2.38h-2.5Z"/><path class="cls-1" d="M187.21,211.92c.48-.05,1.4-.3,1.84-.57,.45-.27,.77-.66,.98-1.16,.21-.5,.32-1.12,.32-1.87,0-1.04-.18-1.84-.55-2.42-.36-.57-.94-.98-1.74-1.21-.79-.23-1.84-.35-3.13-.35-.89,0-2.3,.01-2.3,.01h-3.83v11.19c0,1.58-.2,2.76-.2,2.76h2.74s-.2-1.18-.2-2.76v-3.13h3.32c1.57,0,2.15,.84,2.35,1.44,.2,.59,1.53,4.45,1.53,4.45h2.63s-1.37-3.67-1.63-4.35c-.25-.68-.82-1.71-2.12-2.04m-.71-1.12c-.48,.15-1.13,.23-1.96,.24h-3.41v-5.29h3.29c.83,0,1.48,.07,1.96,.22,.48,.15,.82,.4,1.03,.77,.21,.37,.43,1,.43,1.68s-.11,1.21-.32,1.59c-.21,.38-.55,.64-1.03,.79"/><path class="cls-1" d="M331.93,205.87c-.51-.54-1.18-.93-2.02-1.16-.83-.24-1.85-.36-3.05-.36h-5.98v13.95h5.98c1.2,0,2.22-.12,3.05-.35,.83-.24,1.51-.62,2.02-1.16,.51-.54,.88-1.26,1.12-2.15,.24-.89,.35-2,.35-3.31s-.12-2.42-.35-3.31c-.23-.89-.61-1.61-1.12-2.15m-1.46,8.86c-.27,.79-.72,1.36-1.35,1.69-.63,.34-1.48,.5-2.55,.5-.64,0-2.08,0-3.24,0v-11.17c1.16,0,2.6,0,3.24,0,1.07,0,1.92,.17,2.55,.51,.63,.34,1.08,.91,1.35,1.71,.27,.79,.4,1.96,.4,3.34s-.13,2.61-.4,3.4"/><path class="cls-1" d="M258.43,205c-.57,.43-.87,1.01-.89,1.76v9.16c.02,.73,.31,1.32,.89,1.75,.57,.43,1.36,.65,2.35,.65h7.54v-1.38h-6.83c-.5,0-.87-.11-1.11-.32-.23-.21-.35-.55-.35-1.02v-3.85h7.24v-1.38h-7.24v-3.3c0-.47,.12-.8,.35-1.01,.23-.21,.6-.31,1.11-.31h6.83v-1.39h-7.54c-.99,0-1.77,.21-2.35,.64"/><path class="cls-1" d="M250.6,211c1.37,0,2.71-1.19,2.71-3.11,0-2.65-1.85-3.54-3.81-3.54h-7.27v13.96h7.33c2.34,0,4.39-.84,4.39-3.8,0-2.64-1.95-3.51-3.35-3.51m-.04-4.33c.23,.33,.34,.8,.34,1.42s-.1,1.07-.32,1.41c-.21,.33-.56,.56-1.03,.69-.48,.12-.99,.19-1.8,.21h-3.07v-4.56h3.71c1.32,0,1.94,.52,2.16,.84m-2.02,10.16c-.77,0-2.49,0-3.85,0v-5.13h3.09c.92,.01,1.65,.1,2.19,.25,.54,.16,.92,.43,1.14,.81,.23,.38,.34,.92,.34,1.63,0,1.9-1.19,2.44-2.91,2.44"/><path class="cls-1" d="M298.56,205.73c-.51-.55-1.19-.95-2.04-1.19-.85-.24-2.23-.36-3.44-.36s-2.59,.12-3.44,.36c-.85,.24-1.53,.64-2.05,1.19-.52,.55-.89,1.29-1.13,2.21-.23,.92-.35,2.05-.35,3.4s.12,2.48,.35,3.4c.24,.92,.61,1.66,1.13,2.21,.52,.55,1.2,.95,2.05,1.19s2.23,.36,3.44,.36,2.59-.12,3.44-.36c.85-.24,1.53-.64,2.04-1.19,.51-.55,.88-1.29,1.12-2.21,.23-.92,.35-2.05,.35-3.4s-.12-2.48-.35-3.4c-.24-.92-.61-1.66-1.12-2.21m-1.51,8.93c-.27,.81-.72,1.39-1.36,1.74-.64,.35-1.51,.52-2.61,.52s-1.97-.17-2.61-.52c-.64-.35-1.09-.93-1.36-1.74-.27-.81-.4-1.92-.4-3.32s.13-2.52,.4-3.33c.27-.81,.72-1.38,1.36-1.73,.64-.35,1.51-.52,2.61-.52s1.97,.17,2.61,.52c.64,.35,1.09,.92,1.36,1.73,.27,.81,.4,1.91,.4,3.33s-.13,2.5-.4,3.32"/><path class="cls-1" d="M284.63,204.36h-2.46l-4.32,7.18-4.4-7.18h-2.43l5.56,8.92v2.28c0,1.57-.2,2.76-.2,2.76h2.9s-.2-1.18-.2-2.76v-2.24l5.56-8.96Z"/><path class="cls-1" d="M314.62,204.36h-.2s.2,1.18,.2,2.76v9.44l-7.01-11.64c-.1-.19-.22-.33-.36-.42-.15-.09-.34-.14-.58-.14h-2.84v7.85h0v3.35c0,1.57-.21,2.76-.21,2.76h2.9s-.21-1.18-.21-2.76v-9.21l6.9,11.41c.1,.19,.22,.33,.36,.42,.14,.09,.34,.14,.58,.14h2.94v-11.2c0-1.57,.21-2.76,.21-2.76h-2.69Z"/><path class="cls-1" d="M79.11,204.36h-2.24c-.52,0-.66,.12-.8,.48-.43,1.09-5.39,13.48-5.39,13.48h2.56s.77-2.04,1.69-4.48h6.14c.92,2.44,1.69,4.48,1.69,4.48h2.56s-5.24-13.08-5.39-13.48c-.16-.39-.29-.48-.8-.48m-3.67,8.1c1.23-3.24,2.51-6.65,2.55-6.74,.03,.09,1.32,3.49,2.55,6.74h-5.09Z"/><path class="cls-1" d="M49.65,204.36h-2.24c-.52,0-.66,.12-.8,.48-.43,1.09-5.39,13.48-5.39,13.48h2.56s.77-2.04,1.69-4.48h6.14c.92,2.44,1.69,4.48,1.69,4.48h2.56s-5.24-13.08-5.4-13.48c-.16-.39-.29-.48-.8-.48m-3.67,8.1c1.23-3.24,2.51-6.65,2.55-6.74,.03,.09,1.32,3.49,2.55,6.74h-5.09Z"/><path class="cls-1" d="M23.17,204.36h-2.86s.2,1.18,.2,2.76v8.44c0,1.57-.2,2.76-.2,2.76h2.86s-.2-1.18-.2-2.76v-8.44c0-1.57,.2-2.76,.2-2.76"/><path class="cls-1" d="M31.23,216.42c-.63-.34-1.08-.9-1.35-1.7-.27-.79-.4-2.01-.4-3.38s.13-2.59,.4-3.38c.27-.8,.72-1.36,1.35-1.7,.63-.34,1.49-.51,2.58-.51h4.42v-1.39h-4.57c-1.6,0-2.89,.23-3.85,.68-.96,.45-1.66,1.18-2.09,2.2-.43,1.02-.64,2.38-.64,4.1s.21,3.09,.64,4.1c.43,1.02,1.13,1.75,2.09,2.2,.96,.45,2.25,.67,3.85,.67h4.69v-1.39h-4.55c-1.08,0-1.94-.17-2.58-.51"/><path class="cls-1" d="M65.91,210.93c-1.65-.39-2.62-.65-3.35-.84-.73-.19-1.28-.36-1.62-.66-.33-.3-.5-.74-.5-1.49,0-2.13,1.24-2.21,2.12-2.21h5.8v-1.38h-6.32c-1.48,0-4.1,.41-4.1,3.47,0,1.04,.25,1.87,.74,2.48,.49,.62,1.35,1.05,2.56,1.3,0,0,2.19,.51,3.26,.76,1.26,.3,1.99,.75,1.99,2.03,0,1.07-.02,2.54-2.01,2.54h-6.15v1.38h7.15c2.38,0,3.52-1.35,3.52-3.83,0-2.17-1.07-3.08-3.08-3.56"/><path class="cls-1" d="M15.72,211.33v-6.24c0-.49-.29-.74-.87-.74h-2.18c-.49,0-.79,.2-.92,.6,0,0-3.65,9.96-3.77,10.28-.11-.32-3.76-10.28-3.76-10.28-.15-.4-.45-.6-.9-.6H1.1c-.57,0-.87,.25-.9,.74v10.46c0,1.57-.2,2.76-.2,2.76H2.74s-.2-1.18-.2-2.76v-9.74l3.74,10.18c.15,.4,.47,.6,.97,.6h1.48c.49,0,.79-.2,.92-.6l3.74-10.18v9.74c0,1.57-.2,2.76-.2,2.76h2.74s-.2-1.18-.2-2.76v-4.22Z"/></g></g></g></svg>