<?xml version="1.0" encoding="UTF-8"?><svg id="_層_2" xmlns="http://www.w3.org/2000/svg" viewBox="0 0 26.56 26.56"><defs><style>.cls-1{fill:#f6e1d5;}</style></defs><g id="_層_1-2"><path class="cls-1" d="M14.05,.54l1.54,4.15c1.08,2.9,3.37,5.19,6.27,6.27l4.15,1.55c.72,.27,.72,1.28,0,1.54l-4.15,1.54c-2.9,1.08-5.19,3.37-6.27,6.27l-1.54,4.15c-.27,.72-1.28,.72-1.54,0l-1.54-4.15c-1.08-2.9-3.37-5.19-6.27-6.27L.54,14.05c-.71-.27-.71-1.28,0-1.54l4.15-1.55c2.9-1.08,5.19-3.37,6.27-6.27L12.51,.54c.27-.71,1.28-.71,1.54,0"/></g></svg>