<?xml version="1.0" encoding="UTF-8"?><svg id="_層_2" xmlns="http://www.w3.org/2000/svg" viewBox="0 0 1099.41 116.23"><defs><style>.cls-1{fill:#fff;}</style></defs><g id="_層_1-2"><g><path class="cls-1" d="M100.09,55.23c-2.55,2.37-5.75,2.37-9.6,0-1.49-4.17-3.73-8.63-6.72-13.38-18.07,3.93-43.28,8.47-75.64,13.62-.87,1.47-2.12,2.37-3.77,2.7L0,40.01c8.4,0,15.71-.08,21.91-.25C28.43,26.18,33.54,12.93,37.23,0l20.85,6.63c-.55,1.72-2.12,2.54-4.71,2.46-7.38,11.05-15.71,21.23-24.98,30.56,20.5-.49,38.1-1.02,52.78-1.6-5.18-7.2-11.04-13.54-17.56-19.02l1.06-.98c11.55,2.78,20.7,6.87,27.45,12.27,5.58,4.5,8.99,9.33,10.25,14.48,1.02,4.58,.25,8.06-2.3,10.43ZM14.14,116.23V59.65l15.43,6.26h44.77l6.95-7.98,14.49,11.54c-1.02,1.39-2.83,2.37-5.42,2.95v39.15c-.16,.41-1.61,1.06-4.36,1.96-3.06,.98-5.7,1.47-7.89,1.47h-2.36v-10.8H28.63v7.24c0,.82-1.3,1.8-3.89,2.95-2.83,1.23-5.62,1.84-8.37,1.84h-2.24Zm14.49-15.46h47.13v-31.3H28.63v31.3Z"/><path class="cls-1" d="M168.13,116.1v-48.23h-26.27v7.24c0,.82-1.34,1.8-4.01,2.95-2.91,1.31-5.73,1.96-8.48,1.96h-2.12V21.6l15.67,6.38h25.21V1.1l19.09,1.84c-.24,1.96-1.69,3.15-4.36,3.56V27.98h25.45l6.6-7.61,14.02,11.05c-1.18,1.39-2.79,2.29-4.83,2.7v40.38c-.08,.57-1.53,1.31-4.36,2.21-2.99,.98-5.62,1.47-7.89,1.47h-2.47v-10.31h-26.51v42.96c0,.9-1.3,1.96-3.89,3.19-2.83,1.39-5.54,2.09-8.13,2.09h-2.71Zm-26.27-51.79h26.27V31.54h-26.27v32.77Zm41,0h26.51V31.54h-26.51v32.77Z"/><path class="cls-1" d="M252.49,40.13c-.47-2.86-1.57-6.01-3.3-9.45-1.57-3.03-3.38-5.77-5.42-8.22l1.06-.74c3.85,.74,7.07,1.8,9.66,3.19,2.51-9.16,4.48-17.22,5.89-24.18l17.2,6.01c-.55,1.64-2.08,2.45-4.6,2.45-4.95,6.87-10.01,12.76-15.2,17.67,3.22,2.45,4.91,5.24,5.07,8.35,.08,2.78-.98,4.75-3.18,5.89-2.2,1.31-4.6,.98-7.19-.98Zm9.43,76.09v-38.29c-.63,.16-1.18,.25-1.65,.25-3.85,12.85-8.8,22.38-14.85,28.6l-1.65-.98c3.22-9.49,5.14-20.74,5.77-33.75l12.37,2.7v-12.52l-10.02,3.19c-.79,1.47-1.89,2.37-3.3,2.7l-4.71-13.26c1.65,0,5.03-.12,10.13-.37,1.41-.08,2.51-.12,3.3-.12,6.75-13.99,12.25-26.8,16.5-38.42l16.14,6.63c-.71,1.64-2.32,2.33-4.83,2.09-6.36,9.49-14.1,19.31-23.21,29.46,2.04-.08,5.18-.2,9.43-.37,2.67-.16,4.67-.29,6.01-.37-.87-3.03-2.04-6.09-3.53-9.21l1.3-.61c6.05,2.54,10.45,5.65,13.2,9.33,2.28,3.11,3.1,6.18,2.47,9.2-.47,2.78-1.89,4.54-4.24,5.28-2.44,.82-4.79,.08-7.07-2.21,0-2.45-.39-5.32-1.18-8.59l-3.77,1.35v54.62c0,.57-.94,1.27-2.83,2.09-2.28,1.06-4.79,1.6-7.54,1.6h-2.24Zm18.26-22.34c.08-6.55-1.53-14.03-4.83-22.46l1.41-.61c5.66,3.03,9.7,6.55,12.14,10.56,1.96,3.36,2.67,6.55,2.12,9.57-.63,2.78-2,4.54-4.12,5.28-2.36,.82-4.6,.04-6.72-2.33Zm4.95,17.55l-.82-3.56h28.28v-32.4h-18.85l-.94-3.56h39.35l6.48-8.59,.71,.61c-.71-3.68-2.2-7.65-4.48-11.91-2.59-4.66-5.54-8.35-8.84-11.05,4.79-10.14,8.05-18.08,9.78-23.81l15.91,5.52c-.55,1.39-1.81,1.92-3.77,1.6-5.18,4.83-11.51,10.23-18.97,16.2,7.23,2.13,12.72,4.95,16.5,8.47,3.14,2.87,4.83,5.89,5.07,9.08,.16,2.78-.77,4.95-2.77,6.5-2,1.56-4.26,1.8-6.77,.74,2.51,1.96,5.66,4.71,9.43,8.22-.31,1.31-1.37,1.96-3.18,1.96h-20.86v32.4h10.37l6.95-9.57c1.57,1.31,3.1,2.58,4.59,3.8,3.46,2.95,6.2,5.4,8.25,7.36-.31,1.31-1.41,1.96-3.3,1.96h-68.1Zm2-97.45l-.94-3.44h48.31l7.19-9.57c4.32,3.68,8.6,7.36,12.84,11.05-.31,1.31-1.41,1.96-3.3,1.96h-64.1Zm19.15,51.73c-2.4,1.19-4.81,.84-7.25-1.04-.39-3.6-1.53-7.61-3.42-12.03-2.2-4.83-4.75-8.71-7.66-11.66,4.16-10.31,6.87-18.29,8.13-23.93l16.02,5.15c-.47,1.39-1.69,1.96-3.65,1.72-5.66,5.65-11.55,11.21-17.67,16.69,7.07,2.45,12.29,5.56,15.67,9.33,2.83,3.19,4.08,6.38,3.77,9.57-.24,2.95-1.55,5.01-3.95,6.2Zm20.15-.43c-2.32,1.23-4.73,.94-7.25-.86-.63-3.68-1.96-7.65-4.01-11.91-2.44-4.91-5.22-8.75-8.37-11.54,1.57-3.35,3.34-7.57,5.3-12.64,1.89-4.91,3.14-8.55,3.77-10.92l15.67,5.15c-.55,1.47-1.81,2.05-3.77,1.72-4.56,4.42-10.57,9.86-18.03,16.32,7.23,2.37,12.61,5.4,16.14,9.08,2.98,3.03,4.4,6.18,4.24,9.45-.16,2.86-1.4,4.91-3.71,6.14Z"/><path class="cls-1" d="M368.31,84.19l-1.06-3.56h14.14V16.32l14.49,5.89h8.95V2.45l15.79,1.6c-.16,1.56-1.26,2.54-3.3,2.95v15.22h9.9V2.45l16.02,1.6c-.24,1.56-1.38,2.54-3.42,2.95v15.22h9.66l6.01-8.1,14.38,10.56c-.79,1.31-2.55,2.13-5.3,2.45v50.93l4.6-7.24c1.41,1.31,2.79,2.66,4.12,4.05,3.14,3.03,5.54,5.48,7.19,7.36-.31,1.31-1.34,1.96-3.06,1.96h-109.1Zm.59,31.54l-.47-1.47c6.83-3.27,13.55-7.69,20.15-13.25,6.13-5.24,10.8-10.27,14.02-15.1l16.97,9.08c-.87,1.64-3.06,2.17-6.6,1.6-4.87,4.09-11.23,7.85-19.09,11.29-7.86,3.44-16.18,6.05-24.98,7.85Zm25.92-65.05h10.01V25.65h-10.01v25.04Zm0,29.95h10.01v-26.51h-10.01v26.51Zm22.5-29.95h9.9V25.65h-9.9v25.04Zm0,29.95h9.9v-26.51h-9.9v26.51Zm43.71,32.4c-6.52-9.33-16.26-16.81-29.22-22.46l.71-1.47c11.86,1.31,21.4,3.4,28.63,6.26,6.13,2.45,10.29,5.28,12.49,8.47,1.89,2.78,2.2,5.4,.94,7.85-1.1,2.29-3.03,3.64-5.77,4.05-2.91,.41-5.5-.49-7.78-2.7Zm-21.21-62.35h10.84V25.65h-10.84v25.04Zm0,29.95h10.84v-26.51h-10.84v26.51Z"/><path class="cls-1" d="M538.69,76.71l-2-3.93c6.6-3.68,10.8-9.25,12.61-16.69-3.77-1.55-6.52-3.15-8.25-4.79-2.28-1.96-3.42-4.38-3.42-7.24,0-2.62,.86-4.83,2.59-6.63,1.73-1.8,3.97-2.7,6.72-2.7,2.91,0,5.3,1.06,7.19,3.19,1.88,2.29,2.83,5.4,2.83,9.33,0,5.81-1.38,11.21-4.12,16.2-3.22,5.89-7.94,10.31-14.14,13.25Z"/><path class="cls-1" d="M637.07,116.1v-28.72c-5.97,7.2-12.96,13.38-20.97,18.53l-1.3-1.6c8.09-9,14.49-21.11,19.21-36.33h-16.73l-.94-3.56h20.74v-13.75l16.85,1.6c-.16,1.72-1.38,2.74-3.65,3.07v9.08h6.01l6.13-8.47c1.34,1.15,2.63,2.29,3.89,3.44,2.98,2.7,5.3,4.91,6.95,6.63-.31,1.31-1.34,1.96-3.06,1.96h-19.91v4.17l.47-.37c6.68,1.39,11.66,3.64,14.96,6.75,2.75,2.62,4.01,5.4,3.77,8.35-.24,2.7-1.45,4.58-3.65,5.65-2.44,1.06-4.91,.57-7.42-1.47-.55-5.89-3.26-11.82-8.13-17.8v39.03c0,.65-1.18,1.43-3.53,2.33-2.51,.98-4.95,1.47-7.3,1.47h-2.36Zm22.27-.12l-1.3-1.35c7.31-7.94,12.29-17.71,14.96-29.33,1.96-8.43,2.95-19.47,2.95-33.14v-4.91c-.47,1.06-1.49,1.6-3.06,1.6h-56.91l-.94-3.56h31.34c1.96-6.63,3.73-14.64,5.3-24.06h-33.7l-.94-3.44h20.27V1.23l17.67,1.47c-.16,1.8-1.53,2.91-4.12,3.31v11.78h4.12l6.01-8.71c3.77,3.36,7.54,6.75,11.31,10.19-.31,1.31-1.38,1.96-3.18,1.96h-16.26l14.85,4.79c-.55,1.72-2,2.45-4.36,2.21-4.79,6.63-9.5,12.32-14.14,17.06h8.84l6.48-9.08c1.34,1.23,2.71,2.41,4.12,3.56,3.06,2.78,5.5,5.11,7.3,7V10.92l13.79,4.54c8.48-4.74,15.39-9.61,20.74-14.61l14.37,12.03c-1.41,1.31-3.81,1.43-7.19,.37-7.93,2.78-17.4,4.87-28.4,6.26v24.91h16.85l7.54-10.68c1.65,1.39,3.26,2.82,4.83,4.3,3.69,3.19,6.56,5.85,8.6,7.98-.24,1.31-1.3,1.96-3.18,1.96h-9.78V112.05c-.08,.65-1.1,1.43-3.06,2.33-2.36,1.06-5.07,1.6-8.13,1.6h-2.47V47.99h-11.19v4.42c0,14.24-1.53,25.61-4.6,34.12-4.56,12.44-13,22.25-25.33,29.46Zm-29.93-74.13c.16-5.23-1.22-11.9-4.12-20l1.3-.61c5.58,2.62,9.54,5.73,11.9,9.33,1.96,3.03,2.59,5.97,1.89,8.84-.63,2.62-2.04,4.26-4.24,4.91-2.36,.66-4.59-.16-6.72-2.46Z"/><path class="cls-1" d="M747,115.86l-8.01-15.46c4.95-.74,11.15-1.8,18.62-3.19V59.16h-16.14l-.94-3.44h17.08v-15.1h-8.13l-.59-2.33c-3.54,3.52-7.19,6.55-10.96,9.08l-1.3-.98c4.48-5.65,8.68-13.09,12.61-22.34,3.61-8.43,6.16-16.16,7.66-23.2l16.97,5.89c-.39,1.47-1.81,2.33-4.24,2.58,6.83,1.64,11.86,3.93,15.08,6.87,2.67,2.54,3.85,5.15,3.53,7.86-.31,2.45-1.57,4.17-3.77,5.15-2.36,1.06-4.67,.74-6.95-.98-2.2-5.56-5.54-10.84-10.01-15.83-4.32,8.84-10.13,17.06-17.44,24.67h17.79l6.24-8.96c3.46,3.27,6.87,6.55,10.25,9.82,4.95-8.02,8.44-16.9,10.49-26.63l16.14,7.61c-.63,1.39-2.04,1.96-4.24,1.72-2.99,4.91-6.52,9.41-10.6,13.5l7.07,2.95h22.27l5.66-6.26c-3.54-5.65-5.97-12.15-7.3-19.51h-20.74l-1.06-3.44h19.2l3.77-6.63,10.72,7.24c-1.26,1.56-4.32,2.54-9.19,2.95,2.2,3.76,5.48,7.16,9.84,10.19,4.36,3.03,9.29,5.32,14.79,6.87l.12,1.35c-4.32,1.72-7.42,4.83-9.31,9.33l1.06,.86c-.47,.66-1.1,1.15-1.89,1.47l-.12,.49-.35-.25c-.47,.08-.94,.21-1.41,.37v28.96c-.08,.49-1.34,1.15-3.77,1.96-2.67,.9-4.95,1.35-6.83,1.35h-.59v24.91c0,.82,.14,1.35,.41,1.6,.27,.25,.88,.37,1.83,.37h8.01c.78-.08,1.45-.57,2-1.47,.55-1.14,1.73-5.07,3.53-11.78,.47-1.64,.83-2.86,1.06-3.68h1.3l.35,16.08c1.41,.66,2.4,1.43,2.95,2.33,.39,.74,.59,1.76,.59,3.07,0,2.62-1.22,4.54-3.65,5.77-2.67,1.31-7.11,1.96-13.31,1.96h-6.83c-4.56,0-7.54-.78-8.95-2.33-1.26-1.47-1.89-4.38-1.89-8.71v-33.14h-2.95c-1.18,12.36-4.67,22.09-10.49,29.21-6.21,7.69-15.79,13.46-28.75,17.31l-.59-1.72c8.72-4.66,15.16-10.35,19.32-17.06,3.69-6.05,6.05-13.75,7.07-23.07-2.2,1.06-4.64,1.6-7.3,1.6h-2.24V39.89c-2.91,2.21-5.73,3.97-8.48,5.28l-1.06-1.35c.55-.65,1.37-1.72,2.47-3.19h-12.96v15.1h1.53l6.36-9.82c3.77,3.76,7.5,7.57,11.19,11.41-.31,1.23-1.38,1.84-3.18,1.84h-15.91v35.84c2.12-.41,5.42-1.06,9.9-1.96,4.95-.98,8.64-1.72,11.08-2.21l.35,1.35c-9.66,5.73-23.25,12.56-40.77,20.5-.63,1.72-1.65,2.78-3.06,3.19Zm-2.36-26.63c1.1-7.2,.55-15.38-1.65-24.55l1.53-.37c4.55,3.85,7.7,7.94,9.43,12.27,1.49,3.6,1.81,6.96,.94,10.06-.79,2.78-2.2,4.5-4.24,5.15-2.12,.66-4.12-.2-6.01-2.58Zm28.75,.37l-1.88-.86c1.25-6.79,2.36-15.1,3.3-24.91l14.02,4.42c-.55,1.72-2,2.58-4.36,2.58-4.08,8.43-7.78,14.69-11.08,18.78Zm28.28-23.81h24.86v-25.28h-24.86v25.28Z"/><path class="cls-1" d="M877.31,115.98v-35.59h-14.26l-.94-3.56h15.2V25.77l15.43,6.01h17.2V15.83h-42.89l-.94-3.44h81.65l8.01-10.43c4.87,3.93,9.74,7.9,14.61,11.9-.31,1.31-1.41,1.96-3.3,1.96h-43.12v15.95h18.38l6.6-7.85,14.26,11.29c-1.18,1.47-2.99,2.5-5.42,3.07v38.42l5.89-9.2c1.33,1.23,2.67,2.5,4.01,3.8,3.06,2.86,5.42,5.24,7.07,7.12-.31,1.31-1.38,1.96-3.18,1.96h-13.79v18.16c0,5.48-1.06,9.37-3.18,11.66-2.67,2.95-7.86,4.79-15.55,5.52-.55-5.32-1.61-8.8-3.18-10.43-2.12-2.46-5.85-4.13-11.19-5.03v-1.72c5.42,.25,10.84,.53,16.26,.86,1.89,0,2.83-.86,2.83-2.58v-16.45h-52.55v31.17c0,.74-1.02,1.6-3.06,2.58-2.44,1.23-5.22,1.84-8.37,1.84h-2.47Zm13.9-61.98h18.73v-18.66h-18.73v18.66Zm0,22.83h18.73v-19.39h-18.73v19.39Zm32.75-22.83h19.79v-18.66h-19.79v18.66Zm0,22.83h19.79v-19.39h-19.79v19.39Z"/><path class="cls-1" d="M1001.73,115.98v-39.89c-2.12,15.63-7.03,27.98-14.73,37.06l-1.53-.98c2.75-8.26,4.55-18.37,5.42-30.32,.55-7.04,.82-17.43,.82-31.17V15.59l13.31,5.28h7.89V.86l16.85,1.47c-.16,1.8-1.41,2.91-3.77,3.31v6.01h5.3l6.13-7.73c3.69,3.03,7.34,6.1,10.96,9.2-.24,1.31-1.26,1.96-3.06,1.96h-.24l10.02,9.94c-.63,.74-2.08,1.19-4.36,1.35-4.87,3.44-8.6,5.77-11.19,7l-1.41-.74c.63-2.86,1.18-5.65,1.65-8.35h-15.43c-.39,1.31-1.46,2.09-3.18,2.33v3.93l5.07-.49,3.65-5.4c2.67,1.88,5.34,3.8,8.01,5.77-.16,1.39-1.02,2.17-2.59,2.33l-14.14,1.35v1.84c0,.66,.16,1.09,.47,1.29,.31,.21,1.1,.31,2.36,.31h13.67c1.1-.16,1.81-.37,2.12-.61,.71-.65,1.61-2.09,2.71-4.3h1.18l.47,4.17c1.33,.49,2.24,.98,2.71,1.47,.47,.49,.71,1.15,.71,1.96,0,1.23-.51,2.19-1.53,2.88-1.02,.7-2.79,1.21-5.3,1.53,.24,.25,.71,.61,1.41,1.1,3.06,2.54,5.3,4.46,6.72,5.77-.31,1.31-1.34,1.96-3.06,1.96h-6.83l8.48,6.38c-.71,.98-2.08,1.64-4.12,1.96v9.94c0,.16-.2,.37-.59,.61l10.02,7.86c-.94,1.15-2.55,1.96-4.83,2.45v19.88c0,4.09-.63,6.95-1.89,8.59-1.57,2.05-4.63,3.31-9.19,3.8-.16-3.6-.55-5.93-1.18-7-.79-1.56-2.28-2.54-4.48-2.95v-1.84c1.73,.08,3.46,.16,5.18,.25,1.02,0,1.53-.61,1.53-1.84v-11.66c-.71,.08-2.08,.12-4.12,.12h-2.47c-2.12,0-3.5-.41-4.12-1.23-.63-.74-.94-2.13-.94-4.17v-3.93h-3.65c-.71,5.73-3.61,9.98-8.72,12.76l-1.77-1.84c2.59-2.78,3.97-6.42,4.12-10.92h-4.48v32.65c0,.41-.75,.9-2.24,1.47-1.73,.74-3.73,1.1-6.01,1.1h-1.77Zm10.37-38.78h24.62l2.83-3.44c-1.57,.33-2.91,.49-4.01,.49h-1.65v-3.07h-16.85v1.23c0,.49-.67,1.02-2,1.6-1.65,.66-3.5,.98-5.54,.98h-1.53v-21.48l10.37,4.42h15.32l3.77-4.42h-32.05l-.94-3.56h30.4l4.12-5.03c-2.99,.16-5.85,.25-8.6,.25l-8.48-.12c-3.85,0-6.4-.53-7.66-1.6-1.1-.98-1.65-2.99-1.65-6.01v-2.58l-7.78,.74-1.18-3.44,8.95-.86v-7h-9.43v24.3c0,9.74-.35,17.88-1.06,24.42l10.01,4.17Zm8.13,35.84v-14.48h-6.48l-.94-3.56h14.85l3.53-4.54c2.2,2.05,4.36,4.09,6.48,6.14-.24,1.31-1.18,1.96-2.83,1.96h-5.89v12.27c0,.33-.63,.78-1.88,1.35-1.57,.57-3.34,.86-5.3,.86h-1.53Zm-3.18-45.41h16.85v-6.26h-16.85v6.26Zm8.96-46.76h13.08l5.54-5.77h-18.62v5.77Zm7.19,63.57h3.3c.31,0,.78-.08,1.41-.25v-3.44h-5.54v2.33c0,.9,.27,1.35,.82,1.35Zm13.67,31.66l-1.41-1.72c6.13-9.17,10.45-20.17,12.96-33.02,2.04-10.39,3.18-23.81,3.42-40.26h-12.14l-.94-3.44h13.2c.08-4.5,.08-11.49,0-20.99-.08-6.79-.12-11.99-.12-15.59l18.03,1.72c-.24,1.96-1.65,3.15-4.24,3.56,0,2.37-.04,5.85-.12,10.43-.08,9.49-.16,16.45-.24,20.86h4.59l6.36-9.2c3.93,3.52,7.85,7.08,11.78,10.68-.24,1.31-1.3,1.96-3.18,1.96h-19.09c1.18,15.38,3.77,28.31,7.78,38.78,3.77,9.9,9.07,18.25,15.91,25.04l-.47,1.23c-2.59,.16-5.01,1.12-7.25,2.88-2.24,1.76-4.03,4.11-5.36,7.06-4.09-7.04-7.07-15.22-8.95-24.55-1.65-8.35-2.75-19.47-3.3-33.38-1.26,12.76-3.77,23.48-7.54,32.16-4.4,10.15-10.96,18.74-19.68,25.77Zm37.47-89.59c.08-3.03-.55-6.3-1.89-9.82-1.1-3.11-2.55-5.93-4.36-8.47l1.18-.74c6.28,1.72,10.84,4.21,13.67,7.49,2.36,2.7,3.3,5.48,2.83,8.35-.47,2.62-1.88,4.34-4.24,5.15-2.44,.9-4.83,.25-7.19-1.96Z"/></g></g></svg>