<?xml version="1.0" encoding="UTF-8"?><svg id="_層_2" xmlns="http://www.w3.org/2000/svg" viewBox="0 0 485.7 47.8"><defs><style>.cls-1{fill:#fff;}.cls-2{fill:none;stroke:#fff;stroke-linecap:round;stroke-miterlimit:10;}</style></defs><g id="_層_1-2"><g><g><path class="cls-1" d="M13.22,47.04v-10.41c-2.5,1.12-6.05,2.68-10.63,4.67l-2.58-6.2c2.93-.88,7.33-2.42,13.22-4.62v-12.29H1.71v-6.04H13.22V.96h6.1V47.04h-6.1Zm19.41-.46c-2.76,0-4.65-.64-5.66-1.93-1.01-1.29-1.51-3.72-1.51-7.31V1.02h6v15.24c3.58-2.4,6.91-4.98,10-7.72l4.19,5.43c-3.74,2.64-8.47,5.52-14.19,8.64v14.83c0,1.42,.12,2.31,.37,2.67,.24,.36,.8,.53,1.68,.53h5.07c.91,0,1.51-.68,1.8-2.03,.29-1.22,.52-3.94,.68-8.18,.68,.58,1.59,1.13,2.73,1.68,1.04,.51,1.98,.86,2.83,1.07-.29,5.05-.93,8.5-1.9,10.36-1.07,2.03-2.93,3.05-5.56,3.05h-6.53Z"/><path class="cls-1" d="M96.17,47.65c-5.4-1.29-9.87-3.47-13.41-6.55-3.35-2.91-6.06-6.82-8.14-11.73h-5.61v10.77c3.28-.47,6.79-1.02,10.53-1.63l.24,5.33c-5.98,1.02-13.12,2.17-21.41,3.45l-1.32-5.54c.55-.07,1.43-.19,2.63-.36,1.43-.17,2.54-.3,3.32-.41v-11.63h-8.05v-5.33h8.09V1.88h30.77V6.81h-24.82v2.69h23.46v4.67h-23.46v2.54h23.46v4.67h-23.46v2.64h29.89v5.33h-5.22l3.75,2.74c-2.6,1.96-5.59,3.88-8.97,5.74,3.19,2.07,6.97,3.52,11.36,4.37-1.46,1.59-2.68,3.4-3.66,5.43Zm-11.66-13c2.67-1.62,5.15-3.39,7.46-5.28h-11.31c1.04,1.93,2.32,3.69,3.85,5.28Z"/><path class="cls-1" d="M111.82,47.8c-.42-.61-1.1-1.35-2.02-2.21-.93-.86-1.7-1.48-2.32-1.85,2.31-1.69,4.21-3.96,5.71-6.81-1.79-2.54-3.32-5.82-4.58-9.85l4.54-1.73c.58,2.07,1.38,3.98,2.39,5.74,.75-2.64,1.32-5.49,1.71-8.53h-3.32l-.63,1.47-5.27-1.42c1.92-4.1,4-8.89,6.24-14.38h-6.34V2.95h8.92l.88-.2,3.95,1.12c-1.33,3.56-3.15,8.03-5.46,13.41h2.44l1.02-.15,3.41,.81c-.59,7.15-1.74,13.17-3.46,18.08,2.11,1.73,4.76,2.95,7.95,3.66,2.54,.58,5.82,.88,9.85,.91,8.52,0,13.96-.05,16.34-.15-.88,1.32-1.63,3.28-2.24,5.89h-14.24c-4.49,0-8.21-.34-11.17-1.02-3.48-.78-6.44-2.13-8.88-4.06-1.46,2.64-3.27,4.83-5.41,6.55Zm21.9-8.64v-4.12h-11.56v-4.72h11.56v-2.39h-9.46v-4.37h9.46v-2.24h-9.17v-4.57h9.17v-2.08h-12.24v-4.62h12.24v-2.08h-8.92V3.4h8.92V.51h5.66V3.4h10.14v6.65h3.66v4.62h-3.66v6.65h-10.14v2.24h10.53v4.37h-10.53v2.39h12.78v4.72h-12.78v4.12h-5.66Zm5.66-29.11h4.44v-2.08h-4.44v2.08Zm0,6.71h4.44v-2.08h-4.44v2.08Z"/><path class="cls-1" d="M161.41,13.31v-4.77h19.07v4.77h-19.07Zm20.29,34.24c-.75-1.86-1.76-3.61-3.02-5.23v2.59h-10.19v1.98h-4.93V29.56h15.12v12.65c3.8-1.02,7.09-2.47,9.85-4.37-2.18-2.47-4.05-5.4-5.61-8.79l4.97-1.68h-6.78v-5.44h1.66c-1.07-1.29-2.42-2.51-4.05-3.66v1.93h-15.02v-4.62h15.02v2.44c1.89-1.35,3.2-3.05,3.95-5.08,.52-1.42,.78-3.2,.78-5.33V1.57h16.34V12.95c0,.71,.04,1.15,.12,1.32,.08,.17,.25,.25,.51,.25h1.22c.32,0,.55-.29,.68-.86,.1-.68,.16-2.08,.19-4.22,1.01,.81,2.58,1.52,4.73,2.13-.23,3.12-.72,5.25-1.46,6.4-.72,1.12-1.9,1.68-3.56,1.68h-2.83c-1.95,0-3.28-.46-3.97-1.4-.7-.93-1.05-2.67-1.05-5.21V6.91h-5.46v.86c0,6.57-2.02,11.29-6.05,14.17h17.17l.98-.25,3.8,1.47c-1.5,5.86-4,10.79-7.51,14.78,2.89,1.93,6.24,3.39,10.05,4.37-1.4,1.42-2.65,3.17-3.76,5.23-4-1.25-7.58-3.1-10.73-5.54-3.19,2.34-6.91,4.18-11.17,5.54Zm-17.99-20.47v-4.52h15.02v4.52h-15.02Zm.19-20.78V1.73h14.73V6.3h-14.73Zm4.58,33.88h5.17v-5.84h-5.17v5.84Zm24.29-5.94c1.88-1.96,3.41-4.25,4.58-6.86h-9.31c1.14,2.47,2.71,4.76,4.73,6.86Z"/><path class="cls-1" d="M283.52,47.6c-1.56-1.76-3.09-3.22-4.58-4.37,2.37-.81,4.86-1.93,7.46-3.35,2.57-1.35,4.65-2.67,6.24-3.96h-13.75v-5.69h4.83V5.99h10.09V0h5.41V5.99h4.63V0h5.51V5.99h10.53V30.22h4.39v5.69h-14.04c5.49,2.78,9.87,5.27,13.12,7.47l-5.36,4.06c-3.74-2.88-8.11-5.6-13.12-8.18l3.51-3.35h-14.43l4.58,3.15c-1.89,1.56-4.24,3.13-7.07,4.72-2.73,1.56-5.38,2.83-7.95,3.81Zm5.8-29.72h4.49v-6.3h-4.49v6.3Zm0,12.34h4.49v-6.76h-4.49v6.76Zm9.9-12.34h4.63v-6.3h-4.63v6.3Zm0,12.34h4.63v-6.76h-4.63v6.76Zm10.14-12.34h4.68v-6.3h-4.68v6.3Zm0,12.34h4.68v-6.76h-4.68v6.76Z"/><path class="cls-1" d="M374.52,47.65c-5.4-1.29-9.87-3.47-13.41-6.55-3.35-2.91-6.06-6.82-8.14-11.73h-5.61v10.77c3.28-.47,6.8-1.02,10.53-1.63l.24,5.33c-5.98,1.02-13.12,2.17-21.41,3.45l-1.32-5.54c.55-.07,1.43-.19,2.63-.36,1.43-.17,2.54-.3,3.32-.41v-11.63h-8.05v-5.33h8.09V1.88h30.77V6.81h-24.82v2.69h23.46v4.67h-23.46v2.54h23.46v4.67h-23.46v2.64h29.89v5.33h-5.22l3.75,2.74c-2.6,1.96-5.59,3.88-8.97,5.74,3.19,2.07,6.97,3.52,11.36,4.37-1.46,1.59-2.68,3.4-3.66,5.43Zm-11.66-13c2.67-1.62,5.15-3.39,7.46-5.28h-11.31c1.04,1.93,2.32,3.69,3.85,5.28Z"/><path class="cls-1" d="M390.17,47.8c-.42-.61-1.1-1.35-2.02-2.21-.93-.86-1.7-1.48-2.32-1.85,2.31-1.69,4.21-3.96,5.71-6.81-1.79-2.54-3.32-5.82-4.58-9.85l4.54-1.73c.58,2.07,1.38,3.98,2.39,5.74,.75-2.64,1.32-5.49,1.71-8.53h-3.32l-.63,1.47-5.27-1.42c1.92-4.1,4-8.89,6.24-14.38h-6.34V2.95h8.92l.88-.2,3.95,1.12c-1.33,3.56-3.15,8.03-5.46,13.41h2.44l1.02-.15,3.41,.81c-.59,7.15-1.74,13.17-3.46,18.08,2.11,1.73,4.76,2.95,7.95,3.66,2.54,.58,5.82,.88,9.85,.91,8.52,0,13.96-.05,16.34-.15-.88,1.32-1.63,3.28-2.24,5.89h-14.24c-4.49,0-8.21-.34-11.17-1.02-3.48-.78-6.44-2.13-8.88-4.06-1.46,2.64-3.27,4.83-5.41,6.55Zm21.9-8.64v-4.12h-11.56v-4.72h11.56v-2.39h-9.46v-4.37h9.46v-2.24h-9.17v-4.57h9.17v-2.08h-12.24v-4.62h12.24v-2.08h-8.92V3.4h8.92V.51h5.66V3.4h10.14v6.65h3.66v4.62h-3.66v6.65h-10.14v2.24h10.53v4.37h-10.53v2.39h12.78v4.72h-12.78v4.12h-5.66Zm5.66-29.11h4.44v-2.08h-4.44v2.08Zm0,6.71h4.44v-2.08h-4.44v2.08Z"/><path class="cls-1" d="M439.77,13.31v-4.77h19.07v4.77h-19.07Zm20.29,34.24c-.75-1.86-1.75-3.61-3.02-5.23v2.59h-10.19v1.98h-4.93V29.56h15.12v12.65c3.8-1.02,7.09-2.47,9.85-4.37-2.18-2.47-4.05-5.4-5.61-8.79l4.97-1.68h-6.78v-5.44h1.66c-1.07-1.29-2.42-2.51-4.05-3.66v1.93h-15.02v-4.62h15.02v2.44c1.89-1.35,3.2-3.05,3.95-5.08,.52-1.42,.78-3.2,.78-5.33V1.57h16.34V12.95c0,.71,.04,1.15,.12,1.32,.08,.17,.25,.25,.51,.25h1.22c.33,0,.55-.29,.68-.86,.1-.68,.16-2.08,.2-4.22,1.01,.81,2.58,1.52,4.73,2.13-.23,3.12-.72,5.25-1.46,6.4-.72,1.12-1.9,1.68-3.56,1.68h-2.83c-1.95,0-3.28-.46-3.97-1.4-.7-.93-1.05-2.67-1.05-5.21V6.91h-5.46v.86c0,6.57-2.02,11.29-6.05,14.17h17.17l.98-.25,3.8,1.47c-1.5,5.86-4,10.79-7.51,14.78,2.89,1.93,6.24,3.39,10.05,4.37-1.4,1.42-2.65,3.17-3.75,5.23-4-1.25-7.58-3.1-10.73-5.54-3.19,2.34-6.91,4.18-11.17,5.54Zm-17.99-20.47v-4.52h15.02v4.52h-15.02Zm.2-20.78V1.73h14.73V6.3h-14.73Zm4.58,33.88h5.17v-5.84h-5.17v5.84Zm24.29-5.94c1.88-1.96,3.41-4.25,4.58-6.86h-9.31c1.14,2.47,2.71,4.76,4.73,6.86Z"/></g><g><line class="cls-2" x1="262.09" y1="15.47" x2="228.89" y2="40"/><line class="cls-2" x1="228.89" y1="15.47" x2="262.09" y2="40"/></g></g></g></svg>