<?xml version="1.0" encoding="UTF-8"?><svg id="_層_2" xmlns="http://www.w3.org/2000/svg" viewBox="0 0 606.37 73"><defs><style>.cls-1{fill:#fff;}.cls-2{fill:none;stroke:#fff;stroke-miterlimit:10;stroke-width:.5px;}</style></defs><g id="_層_1-2"><g><g><path class="cls-1" d="M18.03,29.75v-9.14h13.03v-2.71h4.5v2.71h13.13v9.14h-4.35v-4.98H22.2v4.98h-4.17Zm5.71,22.71V27.22h19.24v10.41h-15.02v2.42h17.17v12.27h-4.25v-1.3h-12.92v1.45h-4.21Zm4.21-18.59h10.78v-2.86h-10.78v2.86Zm0,13.27h12.92v-3.27h-12.92v3.27Z"/><path class="cls-1" d="M58.5,49.75c-.69-.5-1.73-1.02-3.1-1.56,.86-1.81,1.46-4.68,1.82-8.62l3.39,.59c-.36,3.89-1.06,7.09-2.11,9.59Zm10.81,2.86v-6.47l-2.61,.89c-.19-2.06-.74-4.29-1.64-6.69l2.96-.93c.4,.94,.83,2.23,1.28,3.87v-5.17l-2.25,1.08c-.05-.35-.18-.92-.39-1.71-.07-.22-.12-.38-.14-.48l-1.79,.15v15.39h-3.64v-15.09l-4.96,.41-.43-3.83,2.57-.15c.48-.59,1.01-1.33,1.61-2.19-.95-1.59-2.31-3.32-4.07-5.2l2.07-2.97c.17,.17,.44,.43,.82,.78,1.09-2.25,1.95-4.4,2.57-6.43l3.68,1.34c-1.71,3.52-3.06,6.05-4.03,7.58,.36,.4,.74,.88,1.14,1.45,1.33-2.23,2.4-4.24,3.21-6.02l3.46,1.67c-2.47,3.94-4.69,7.2-6.64,9.78l3.1-.19c-.36-.84-.74-1.64-1.14-2.38l3-1.3c.9,1.64,1.65,3.26,2.25,4.87v-15.24h19.17v28.74c0,1.04-.12,1.83-.36,2.38-.24,.54-.64,.98-1.21,1.3-.98,.52-2.77,.76-5.39,.71-.12-1.26-.49-2.5-1.11-3.72,.95,.05,2.13,.07,3.53,.07,.45-.02,.68-.27,.68-.74V23.25h-11.53v29.37h-3.78Zm9.81-5.58c-1.64,0-2.74-.35-3.28-1.04-.52-.64-.79-1.87-.79-3.68v-3.23h-1.14v-3.35h3.11v-2.9h-3v-3.35h1.29c-.21-1.54-.61-3.01-1.18-4.42l2.5-.93c.79,1.56,1.26,3.14,1.43,4.72l-1.71,.63h4.43l-1.43-.52c.64-1.61,1.11-3.28,1.39-5.02l3.21,.97c-.29,.62-.7,1.56-1.25,2.83-.33,.82-.58,1.4-.75,1.75h1.71v3.35h-3.07v2.9h3.18v3.35h-5.17v3.27c0,.5,.04,.82,.11,.99,.07,.16,.21,.24,.43,.24h2.39c.71,0,1.32-.07,1.82-.22,.02,.15,.05,.43,.07,.86,.09,1.29,.17,2.14,.21,2.56-.41,.17-1.11,.26-2.11,.26h-2.39Z"/><path class="cls-1" d="M98.22,52.69c-.31-.45-.8-.99-1.48-1.62-.68-.63-1.24-1.09-1.7-1.36,1.69-1.24,3.08-2.9,4.17-4.98-1.31-1.86-2.43-4.26-3.35-7.21l3.32-1.26c.43,1.51,1.01,2.91,1.75,4.2,.55-1.93,.96-4.02,1.25-6.25h-2.43l-.46,1.08-3.85-1.04c1.4-3,2.93-6.5,4.57-10.52h-4.64v-3.87h6.53l.64-.15,2.89,.82c-.98,2.6-2.31,5.87-4,9.81h1.78l.75-.11,2.5,.59c-.43,5.23-1.27,9.64-2.53,13.23,1.55,1.26,3.49,2.16,5.82,2.68,1.86,.42,4.26,.64,7.21,.67,6.23,0,10.22-.04,11.96-.11-.64,.97-1.19,2.4-1.64,4.31h-10.42c-3.28,0-6.01-.25-8.17-.74-2.55-.57-4.71-1.56-6.5-2.97-1.07,1.93-2.39,3.53-3.96,4.8Zm16.02-6.32v-3.01h-8.46v-3.46h8.46v-1.75h-6.92v-3.2h6.92v-1.64h-6.71v-3.35h6.71v-1.52h-8.96v-3.38h8.96v-1.52h-6.53v-3.35h6.53v-2.12h4.14v2.12h7.42v4.87h2.68v3.38h-2.68v4.87h-7.42v1.64h7.71v3.2h-7.71v1.75h9.35v3.46h-9.35v3.01h-4.14Zm4.14-21.3h3.25v-1.52h-3.25v1.52Zm0,4.91h3.25v-1.52h-3.25v1.52Z"/><path class="cls-1" d="M144.12,46.48v-13.01h4.5c.07-.45,.14-.93,.21-1.45h-13.28v-3.23h13.67l.11-1.45h-12.13v-8.1h28.19v8.1h-11.81l-.18,1.45h13.38v3.23h-13.81l-.25,1.45h11.49v13.01h-20.09Zm-6.67,6.1v-18.59h4.32v13.9h25.77v3.35h-25.77v1.34h-4.32Zm3.78-28.22h4v-2.19h-4v2.19Zm6.85,12.71h12.03v-1.26h-12.03v1.26Zm0,3.49h12.03v-1.26h-12.03v1.26Zm0,3.57h12.03v-1.34h-12.03v1.34Zm1-19.78h4.03v-2.19h-4.03v2.19Zm7.92,0h4.14v-2.19h-4.14v2.19Z"/><path class="cls-1" d="M188.12,52.54v-11.6h-8.03v2.04h-4.28V24.25h12.31v-6.43h4.5v6.43h12.53v18.55h-4.46v-1.86h-8.07v11.6h-4.5Zm-8.03-15.95h8.03v-7.99h-8.03v7.99Zm12.53,0h8.07v-7.99h-8.07v7.99Z"/><path class="cls-1" d="M235.08,39.52l5,1.65c-.77,2.9-2.04,5.06-3.83,6.47-1.78,1.41-4.05,2.11-6.79,2.11-3.39,0-6.18-1.21-8.36-3.62-2.18-2.41-3.28-5.71-3.28-9.9,0-4.43,1.1-7.87,3.29-10.32,2.2-2.45,5.08-3.68,8.66-3.68,3.12,0,5.66,.96,7.62,2.89,1.16,1.14,2.03,2.77,2.61,4.9l-5.11,1.27c-.3-1.38-.93-2.47-1.89-3.27s-2.12-1.2-3.49-1.2c-1.89,0-3.43,.71-4.61,2.12-1.18,1.42-1.77,3.71-1.77,6.88,0,3.36,.58,5.76,1.74,7.19,1.16,1.43,2.67,2.14,4.53,2.14,1.37,0,2.55-.45,3.54-1.36,.99-.91,1.7-2.34,2.12-4.28Z"/><path class="cls-1" d="M245.24,36.16c0-2.71,.39-4.99,1.17-6.83,.58-1.35,1.37-2.57,2.38-3.65,1-1.08,2.11-1.88,3.3-2.4,1.59-.7,3.43-1.05,5.51-1.05,3.76,0,6.78,1.22,9.04,3.65,2.26,2.43,3.39,5.81,3.39,10.15s-1.12,7.66-3.36,10.08c-2.24,2.43-5.24,3.64-8.99,3.64s-6.82-1.21-9.06-3.62c-2.24-2.41-3.36-5.74-3.36-9.97Zm5.32-.18c0,3.01,.67,5.3,2,6.85,1.33,1.56,3.03,2.33,5.09,2.33s3.74-.77,5.06-2.31c1.32-1.54,1.98-3.86,1.98-6.94s-.64-5.32-1.93-6.83c-1.28-1.5-2.99-2.25-5.11-2.25s-3.84,.76-5.14,2.28c-1.3,1.52-1.95,3.81-1.95,6.87Z"/><path class="cls-1" d="M275.76,49.3V22.69h7.72l4.64,18.15,4.58-18.15h7.74v26.61h-4.79V28.36l-5.07,20.95h-4.97l-5.05-20.95v20.95h-4.79Z"/><path class="cls-1" d="M307.19,49.3V22.69h5.16v26.61h-5.16Z"/><path class="cls-1" d="M319.1,49.3V22.69h5.02l10.46,17.77V22.69h4.79v26.61h-5.18l-10.3-17.35v17.35h-4.79Z"/><path class="cls-1" d="M358.48,39.52v-4.48h11.12v10.6c-1.08,1.09-2.65,2.05-4.7,2.88-2.05,.83-4.13,1.24-6.23,1.24-2.67,0-5-.58-6.99-1.75-1.99-1.17-3.48-2.84-4.48-5.01-1-2.17-1.5-4.54-1.5-7.09,0-2.77,.56-5.23,1.67-7.39s2.75-3.81,4.9-4.95c1.64-.88,3.68-1.33,6.12-1.33,3.17,0,5.65,.69,7.43,2.08,1.78,1.39,2.93,3.3,3.44,5.75l-5.12,1c-.36-1.31-1.04-2.34-2.03-3.09-.99-.76-2.23-1.13-3.72-1.13-2.25,0-4.05,.74-5.38,2.23-1.33,1.49-2,3.7-2,6.62,0,3.16,.67,5.53,2.02,7.11,1.35,1.58,3.11,2.37,5.3,2.37,1.08,0,2.16-.22,3.25-.66,1.09-.44,2.02-.98,2.8-1.61v-3.38h-5.91Z"/><path class="cls-1" d="M386.54,40.65l5.02-.51c.3,1.75,.91,3.04,1.84,3.87,.92,.82,2.17,1.23,3.74,1.23,1.66,0,2.91-.37,3.75-1.1,.84-.73,1.26-1.59,1.26-2.57,0-.63-.18-1.16-.53-1.61-.35-.44-.97-.83-1.86-1.15-.6-.22-1.98-.6-4.13-1.16-2.76-.71-4.71-1.59-5.82-2.63-1.57-1.46-2.35-3.25-2.35-5.35,0-1.36,.37-2.62,1.11-3.8,.74-1.18,1.8-2.08,3.19-2.7,1.39-.62,3.06-.93,5.03-.93,3.21,0,5.62,.73,7.24,2.2,1.62,1.46,2.47,3.42,2.55,5.86l-5.16,.24c-.22-1.37-.69-2.35-1.42-2.95-.73-.6-1.82-.9-3.27-.9s-2.67,.32-3.52,.96c-.55,.41-.82,.96-.82,1.65,0,.63,.26,1.17,.77,1.62,.65,.57,2.23,1.16,4.74,1.78,2.51,.62,4.37,1.26,5.57,1.91,1.2,.66,2.14,1.56,2.82,2.71,.68,1.14,1.02,2.56,1.02,4.24,0,1.52-.41,2.95-1.22,4.28-.81,1.33-1.96,2.32-3.45,2.97-1.49,.65-3.34,.97-5.56,.97-3.23,0-5.71-.78-7.44-2.33-1.73-1.56-2.77-3.82-3.1-6.8Z"/><path class="cls-1" d="M412.39,36.16c0-2.71,.39-4.99,1.17-6.83,.58-1.35,1.37-2.57,2.38-3.65,1-1.08,2.11-1.88,3.3-2.4,1.59-.7,3.43-1.05,5.51-1.05,3.76,0,6.78,1.22,9.04,3.65,2.26,2.43,3.39,5.81,3.39,10.15s-1.12,7.66-3.36,10.08c-2.24,2.43-5.24,3.64-8.99,3.64s-6.82-1.21-9.06-3.62c-2.24-2.41-3.36-5.74-3.36-9.97Zm5.32-.18c0,3.01,.67,5.3,2,6.85,1.33,1.56,3.03,2.33,5.09,2.33s3.74-.77,5.06-2.31c1.32-1.54,1.98-3.86,1.98-6.94s-.64-5.32-1.93-6.83c-1.28-1.5-2.99-2.25-5.11-2.25s-3.84,.76-5.14,2.28c-1.3,1.52-1.95,3.81-1.95,6.87Z"/><path class="cls-1" d="M441.93,36.16c0-2.71,.39-4.99,1.17-6.83,.58-1.35,1.37-2.57,2.38-3.65,1-1.08,2.11-1.88,3.3-2.4,1.59-.7,3.43-1.05,5.51-1.05,3.76,0,6.78,1.22,9.04,3.65,2.26,2.43,3.39,5.81,3.39,10.15s-1.12,7.66-3.36,10.08c-2.24,2.43-5.24,3.64-8.99,3.64s-6.82-1.21-9.06-3.62c-2.24-2.41-3.36-5.74-3.36-9.97Zm5.32-.18c0,3.01,.67,5.3,2,6.85,1.33,1.56,3.03,2.33,5.09,2.33s3.74-.77,5.06-2.31c1.32-1.54,1.98-3.86,1.98-6.94s-.64-5.32-1.93-6.83c-1.28-1.5-2.99-2.25-5.11-2.25s-3.84,.76-5.14,2.28c-1.3,1.52-1.95,3.81-1.95,6.87Z"/><path class="cls-1" d="M472.57,49.3V22.69h5.02l10.46,17.77V22.69h4.79v26.61h-5.18l-10.3-17.35v17.35h-4.79Z"/></g><rect class="cls-2" x=".25" y=".25" width="512.55" height="72.5" rx="11.81" ry="11.81"/><path class="cls-1" d="M593.37,4.3h-38.41c-7.18,0-13,5.82-13,13V55.71c0,7.18,5.82,13,13,13h13.4v-23.34h-8.48v-9.65h8.48v-7.36c0-8.37,4.99-12.99,12.61-12.99,3.65,0,7.48,.65,7.48,.65v8.22h-4.21c-4.15,0-5.44,2.57-5.44,5.22v6.26h9.26l-1.48,9.65h-7.78v23.34h14.57c7.18,0,13-5.82,13-13V17.3c0-7.18-5.82-13-13-13Z"/></g></g></svg>