<?xml version="1.0" encoding="UTF-8"?><svg id="_層_2" xmlns="http://www.w3.org/2000/svg" viewBox="0 0 511.99 50.12"><defs><style>.cls-1{fill:#fff;}</style></defs><g id="_層_1-2"><g><g><path class="cls-1" d="M87.73,0c3.34,0,6.22,.85,8.64,2.56,2.42,1.71,4.29,4.32,5.6,7.83,1.32,3.51,1.98,8.41,1.98,14.68s-.67,11.27-2.01,14.79c-1.34,3.52-3.14,6.11-5.4,7.77s-5.12,2.48-8.56,2.48-6.34-.83-8.69-2.5c-2.35-1.67-4.18-4.19-5.51-7.59-1.33-3.39-1.99-8.23-1.99-14.5,0-8.76,1.3-15.1,3.89-19.04,2.89-4.33,6.9-6.49,12.05-6.49Zm.2,8.63c-1.47,0-2.78,.49-3.92,1.48-1.14,.98-2.01,2.68-2.61,5.08-.6,2.4-.9,5.92-.9,10.54,0,6.03,.69,10.2,2.07,12.5,1.38,2.3,3.16,3.46,5.36,3.46s3.79-1.09,5.03-3.28c1.51-2.64,2.27-7.05,2.27-13.23s-.68-10.6-2.04-12.97c-1.36-2.38-3.11-3.57-5.27-3.57Z"/><path class="cls-1" d="M136.16,23.04c2.08,1.38,3.68,3.17,4.81,5.34,1.13,2.17,1.7,4.53,1.7,7.06,0,2.75-.66,5.29-1.98,7.63-1.32,2.34-3.09,4.1-5.31,5.28-2.22,1.18-5.05,1.77-8.5,1.77-3.7,0-6.63-.57-8.81-1.7-2.18-1.14-3.92-2.86-5.23-5.16s-1.96-4.91-1.96-7.81c0-2.51,.52-4.8,1.57-6.87,1.05-2.07,2.62-3.91,4.72-5.53-1.37-1.45-2.4-2.99-3.1-4.62-.7-1.63-1.04-3.35-1.04-5.17,0-2.48,.58-4.75,1.73-6.79,1.15-2.04,2.77-3.63,4.84-4.76,2.08-1.13,4.47-1.7,7.19-1.7s5.03,.57,7.07,1.72c2.03,1.15,3.64,2.77,4.81,4.88,1.17,2.11,1.76,4.37,1.76,6.79,0,1.71-.31,3.29-.92,4.75-.61,1.46-1.73,3.09-3.35,4.91Zm-9.31,4.85c-2.1,0-3.86,.67-5.29,2-1.43,1.33-2.15,2.91-2.15,4.75s.67,3.55,2.02,4.88c1.35,1.33,3.12,2,5.32,2s3.99-.62,5.31-1.87c1.32-1.24,1.98-2.85,1.98-4.82s-.68-3.62-2.05-4.95c-1.37-1.33-3.08-2-5.14-2Zm-.34-19.14c-1.43,0-2.61,.49-3.53,1.47-.92,.98-1.39,2.24-1.39,3.77s.49,2.81,1.46,3.85c.98,1.04,2.18,1.55,3.61,1.55s2.68-.51,3.63-1.52c.94-1.01,1.42-2.33,1.42-3.95,0-1.53-.48-2.78-1.43-3.73-.96-.96-2.21-1.44-3.77-1.44Z"/><path class="cls-1" d="M165.54,0c3.34,0,6.22,.85,8.64,2.56,2.42,1.71,4.29,4.32,5.6,7.83,1.32,3.51,1.98,8.41,1.98,14.68s-.67,11.27-2.01,14.79c-1.34,3.52-3.14,6.11-5.4,7.77s-5.12,2.48-8.56,2.48-6.34-.83-8.69-2.5c-2.35-1.67-4.18-4.19-5.51-7.59-1.33-3.39-1.99-8.23-1.99-14.5,0-8.76,1.3-15.1,3.89-19.04,2.89-4.33,6.9-6.49,12.05-6.49Zm.2,8.63c-1.47,0-2.78,.49-3.92,1.48-1.14,.98-2.01,2.68-2.61,5.08-.6,2.4-.9,5.92-.9,10.54,0,6.03,.69,10.2,2.07,12.5,1.38,2.3,3.16,3.46,5.36,3.46s3.79-1.09,5.03-3.28c1.51-2.64,2.27-7.05,2.27-13.23s-.68-10.6-2.04-12.97c-1.36-2.38-3.11-3.57-5.27-3.57Z"/><path class="cls-1" d="M204.45,0c3.34,0,6.22,.85,8.64,2.56,2.42,1.71,4.29,4.32,5.6,7.83,1.32,3.51,1.98,8.41,1.98,14.68s-.67,11.27-2.01,14.79c-1.34,3.52-3.14,6.11-5.4,7.77s-5.12,2.48-8.56,2.48-6.34-.83-8.69-2.5c-2.35-1.67-4.18-4.19-5.51-7.59-1.33-3.39-1.99-8.23-1.99-14.5,0-8.76,1.3-15.1,3.89-19.04,2.89-4.33,6.9-6.49,12.05-6.49Zm.2,8.63c-1.47,0-2.78,.49-3.92,1.48-1.14,.98-2.01,2.68-2.61,5.08-.6,2.4-.9,5.92-.9,10.54,0,6.03,.69,10.2,2.07,12.5,1.38,2.3,3.16,3.46,5.36,3.46s3.79-1.09,5.03-3.28c1.51-2.64,2.27-7.05,2.27-13.23s-.68-10.6-2.04-12.97c-1.36-2.38-3.11-3.57-5.27-3.57Z"/><path class="cls-1" d="M231.11,27.22h15.82v8.24h-15.82v-8.24Z"/><path class="cls-1" d="M266.72,16.58h-8.5c.23-5.15,1.78-9.2,4.66-12.15,2.88-2.95,6.56-4.43,11.07-4.43,2.78,0,5.24,.61,7.36,1.83,2.13,1.22,3.83,2.98,5.11,5.29,1.28,2.3,1.92,4.64,1.92,7.02,0,2.83-.77,5.88-2.32,9.15-1.55,3.27-4.38,7.13-8.49,11.58l-5.14,5.64h16.33v8.4h-31.73v-4.35l14.17-15.05c3.42-3.61,5.7-6.51,6.83-8.71,1.13-2.19,1.7-4.18,1.7-5.95s-.59-3.36-1.76-4.56c-1.17-1.2-2.68-1.8-4.53-1.8s-3.43,.72-4.67,2.17c-1.25,1.45-1.91,3.42-1.99,5.9Z"/><path class="cls-1" d="M305,1.2h13.05V48.92h-8.66V9.73h-9.44l5.04-8.53Z"/><path class="cls-1" d="M351.91,0l7.43,3.87-8.02,16.21c3.88,0,7.18,1.45,9.9,4.35,2.72,2.9,4.08,6.5,4.08,10.8s-1.4,7.67-4.19,10.56c-2.79,2.89-6.16,4.33-10.11,4.33s-7.57-1.5-10.32-4.49c-2.75-3-4.13-6.43-4.13-10.3,0-1.47,.21-2.95,.64-4.44s1.41-3.78,2.94-6.88L351.91,0Zm-1.09,28.67c-1.62,0-2.98,.61-4.08,1.83-1.1,1.22-1.65,2.75-1.65,4.59s.58,3.38,1.73,4.64c1.15,1.25,2.5,1.88,4.03,1.88,1.62,0,3.01-.62,4.17-1.85,1.16-1.23,1.74-2.79,1.74-4.67s-.57-3.37-1.7-4.59c-1.13-1.22-2.55-1.83-4.25-1.83Z"/><path class="cls-1" d="M377.8,27.22h15.82v8.24h-15.82v-8.24Z"/><path class="cls-1" d="M429.54,23.04c2.08,1.38,3.68,3.17,4.81,5.34,1.13,2.17,1.7,4.53,1.7,7.06,0,2.75-.66,5.29-1.98,7.63-1.32,2.34-3.09,4.1-5.31,5.28-2.22,1.18-5.05,1.77-8.5,1.77-3.7,0-6.63-.57-8.81-1.7-2.18-1.14-3.92-2.86-5.23-5.16-1.31-2.3-1.96-4.91-1.96-7.81,0-2.51,.52-4.8,1.57-6.87,1.05-2.07,2.62-3.91,4.72-5.53-1.37-1.45-2.4-2.99-3.1-4.62-.7-1.63-1.04-3.35-1.04-5.17,0-2.48,.58-4.75,1.73-6.79,1.15-2.04,2.77-3.63,4.84-4.76,2.08-1.13,4.47-1.7,7.19-1.7s5.03,.57,7.07,1.72c2.03,1.15,3.64,2.77,4.81,4.88,1.17,2.11,1.76,4.37,1.76,6.79,0,1.71-.31,3.29-.92,4.75-.61,1.46-1.73,3.09-3.35,4.91Zm-9.31,4.85c-2.1,0-3.86,.67-5.29,2-1.43,1.33-2.15,2.91-2.15,4.75s.67,3.55,2.02,4.88c1.35,1.33,3.12,2,5.32,2s3.99-.62,5.31-1.87c1.32-1.24,1.98-2.85,1.98-4.82s-.68-3.62-2.05-4.95c-1.37-1.33-3.08-2-5.14-2Zm-.34-19.14c-1.43,0-2.61,.49-3.53,1.47-.92,.98-1.39,2.24-1.39,3.77s.49,2.81,1.46,3.85c.98,1.04,2.18,1.55,3.61,1.55s2.68-.51,3.63-1.52c.94-1.01,1.42-2.33,1.42-3.95,0-1.53-.48-2.78-1.43-3.73-.96-.96-2.21-1.44-3.77-1.44Z"/><path class="cls-1" d="M459.69,0l7.43,3.87-8.02,16.21c3.88,0,7.18,1.45,9.9,4.35,2.72,2.9,4.08,6.5,4.08,10.8s-1.4,7.67-4.19,10.56c-2.79,2.89-6.16,4.33-10.11,4.33s-7.57-1.5-10.32-4.49c-2.75-3-4.13-6.43-4.13-10.3,0-1.47,.21-2.95,.64-4.44,.43-1.49,1.41-3.78,2.94-6.88L459.69,0Zm-1.09,28.67c-1.62,0-2.98,.61-4.08,1.83-1.1,1.22-1.65,2.75-1.65,4.59s.58,3.38,1.73,4.64c1.15,1.25,2.5,1.88,4.03,1.88,1.62,0,3.01-.62,4.17-1.85,1.16-1.23,1.74-2.79,1.74-4.67s-.57-3.37-1.7-4.59c-1.13-1.22-2.55-1.83-4.25-1.83Z"/><path class="cls-1" d="M498.6,0l7.43,3.87-8.02,16.21c3.88,0,7.18,1.45,9.9,4.35,2.72,2.9,4.08,6.5,4.08,10.8s-1.4,7.67-4.19,10.56c-2.79,2.89-6.16,4.33-10.11,4.33s-7.57-1.5-10.32-4.49c-2.75-3-4.13-6.43-4.13-10.3,0-1.47,.21-2.95,.64-4.44s1.41-3.78,2.94-6.88L498.6,0Zm-1.09,28.67c-1.62,0-2.98,.61-4.08,1.83-1.1,1.22-1.65,2.75-1.65,4.59s.58,3.38,1.73,4.64c1.15,1.25,2.5,1.88,4.03,1.88,1.62,0,3.01-.62,4.17-1.85,1.16-1.23,1.74-2.79,1.74-4.67s-.57-3.37-1.7-4.59c-1.13-1.22-2.55-1.83-4.25-1.83Z"/></g><g><path class="cls-1" d="M4.5,23.33v-6.83c-.96,.27-2.02,.52-3.18,.77-.13-.4-.32-.86-.57-1.38-.26-.52-.5-.93-.74-1.23,3.14-.51,5.94-1.34,8.4-2.47-.77-.58-1.48-1.21-2.15-1.87-.88,.6-1.85,1.16-2.92,1.67-.19-.35-.48-.75-.86-1.2s-.73-.78-1.03-1c3.13-1.25,5.37-2.92,6.73-5.01H3.76v2.77H.96V2.09H9.69V.07h2.92V2.09h8.88V7.55h-2.92v-2.77H8.57l2.66,.55c-.16,.23-.42,.58-.77,1.05h5.22l.48-.12,1.92,1.2c-.96,1.68-2.33,3.21-4.12,4.59,2.46,.91,5.28,1.54,8.47,1.87-.7,.82-1.3,1.77-1.8,2.87-.64-.1-1.45-.24-2.44-.42v6.93h-2.94v-.72H7.28v.77h-2.78Zm2.78-3.22h7.97v-2.12H7.28v2.12Zm.12-4.56h7.8c-1.37-.42-2.74-.97-4.09-1.67-1.26,.67-2.5,1.22-3.71,1.67Zm3.71-4.81c1.07-.68,1.95-1.4,2.63-2.14h-5.31l-.12,.1c.83,.78,1.76,1.46,2.8,2.04Z"/><path class="cls-1" d="M30.92,23.36c-.26-.22-.62-.47-1.1-.75-.48-.28-.88-.49-1.2-.62,.65-1.5,1.1-3.47,1.34-5.91,.16-1.58,.24-3.62,.24-6.11V.92h7.54V20.09c0,.73-.06,1.29-.19,1.67-.14,.45-.41,.79-.79,1.02-.35,.22-.81,.37-1.36,.45-.45,.07-1.1,.1-1.96,.1-.03-.4-.12-.88-.26-1.45-.16-.58-.33-1.05-.5-1.42,.46,.03,1.06,.04,1.79,.03h.24c.27,0,.41-.15,.41-.45v-4.94h-2.51c-.25,3.52-.81,6.27-1.67,8.25Zm1.82-11.05h2.37v-3.02h-2.35v.67c0,1.01,0,1.79-.02,2.34Zm.02-5.76h2.35V3.66h-2.35v2.89Zm6.29,16.8V.94h11.01V5.75c0,.68-.09,1.19-.26,1.52-.19,.38-.53,.67-1,.87-.42,.17-.99,.27-1.72,.32-.46,.03-1.26,.05-2.39,.05-.11-.68-.39-1.51-.84-2.49,1.28,.08,2.27,.1,2.99,.05,.19-.02,.32-.05,.39-.1,.07-.05,.11-.15,.11-.3v-1.99h-5.58v5.91h6.92l.43-.1,1.7,.57c-.53,3.26-1.48,6.04-2.87,8.35,1.1,1.16,2.28,2.04,3.54,2.62-.67,.65-1.26,1.42-1.77,2.32-1.25-.73-2.38-1.64-3.4-2.72-.91,1.05-1.96,1.94-3.14,2.67-.37-.73-.84-1.4-1.41-2v2.04h-2.71Zm2.71-2.37c1-.58,1.98-1.43,2.92-2.54-1.07-1.66-2-3.72-2.78-6.18h-.14v8.73Zm4.4-4.84c.65-1.18,1.17-2.48,1.56-3.89h-3.4c.5,1.4,1.11,2.69,1.84,3.89Z"/><path class="cls-1" d="M11.44,49.93c-.11-.78-.38-1.65-.81-2.59,.77,.03,1.73,.05,2.9,.05,.19-.02,.32-.05,.39-.1,.07-.05,.11-.16,.11-.32v-2.32H7.28c1.16,.86,2.02,1.63,2.56,2.29l-2.11,1.9c-.34-.47-.86-1.02-1.58-1.67-.65-.61-1.33-1.16-2.01-1.65l1-.87H.36v-2.34H14.03v-.92c-5.14,.12-9.33,.18-12.59,.2l-.07-2.12c.97,.02,2.7,.02,5.17,0h3.25v-.9H2.9v-7.18h6.89v-.9H1v-2.24H9.79v-1.57h2.78v1.57h8.74v2.24H12.57v.9h7.23v7.18h-1.6c1.17,.63,2.19,1.3,3.09,1.99l-1.75,1.52s-.05-.04-.1-.08c-.38-.33-.69-.58-.91-.75l-1.75,.05v1h5.34v2.34h-5.34v2.42c0,.71-.08,1.25-.24,1.6-.18,.38-.5,.67-.98,.87-.69,.27-2.06,.4-4.12,.4Zm-5.89-15.83h4.24v-.92H5.55v.92Zm0,2.64h4.24v-.95H5.55v.95Zm7.01-2.64h4.45v-.92h-4.45v.92Zm0,2.64h4.45v-.95h-4.45v.95Zm0,2.69l3.02-.03c-.1-.03-.22-.09-.38-.17-.27-.13-.47-.22-.6-.27l.48-.4h-2.51v.87Z"/><path class="cls-1" d="M30.45,48.06c-.46-.33-1.16-.68-2.08-1.05,.57-1.21,.98-3.14,1.22-5.78l2.27,.4c-.24,2.61-.71,4.75-1.41,6.43Zm1.75,1.87v-10.12l-3.33,.27-.29-2.57,1.72-.1c.32-.4,.68-.89,1.08-1.47-.64-1.06-1.55-2.23-2.73-3.49l1.39-2c.11,.12,.29,.29,.55,.52,.73-1.51,1.31-2.95,1.72-4.31l2.47,.9c-1.15,2.36-2.05,4.06-2.71,5.09,.24,.27,.49,.59,.77,.97,.89-1.5,1.61-2.84,2.15-4.04l2.32,1.12c-1.66,2.64-3.14,4.83-4.45,6.56l2.08-.12c-.24-.57-.49-1.1-.77-1.6l2.01-.87c1.12,2.01,1.83,3.77,2.13,5.29l-.26,.12h3.18l.43-.07,1.44,.6v-2.19h-4.62v-9.3h3.73c.35-.88,.63-1.71,.84-2.49l3.21,.47c-.37,.76-.72,1.44-1.05,2.02h4.93v9.3h-4.5v.22c.3,1.06,.65,2.01,1.05,2.84,.94-.95,1.67-1.77,2.18-2.47l2.3,1.77c-.16,.13-.39,.33-.69,.6-1.18,1.03-2.03,1.75-2.56,2.14,.99,1.33,2.19,2.32,3.59,2.97-.69,.75-1.24,1.55-1.67,2.42-1.69-1-3.09-2.55-4.19-4.66v2.84c0,.67-.06,1.17-.19,1.52-.14,.37-.4,.65-.77,.85-.35,.2-.81,.32-1.36,.37-.4,.05-1.03,.08-1.89,.08-.11-.92-.34-1.75-.67-2.52,.54,.02,1.2,.03,1.96,.03,.25-.02,.38-.13,.38-.35v-5.98c-.86,3.71-2.48,6.32-4.86,7.83-.19-.28-.46-.63-.81-1.05-.38-.43-.7-.74-.96-.92,1.68-.95,2.91-2.43,3.71-4.44h-2.32v-2.32l-1.68,.8c-.03-.23-.12-.62-.26-1.15-.05-.15-.08-.26-.1-.32l-1.2,.1v10.32h-2.44Zm3.71-3.84c-.1-1.26-.45-2.71-1.05-4.34l1.99-.62c.62,1.51,1.01,2.93,1.17,4.26l-2.11,.7Zm5.15-13.41h6.41v-1.27h-6.41v1.27Zm0,3.46h6.41v-1.32h-6.41v1.32Z"/></g></g></g></svg>